<svg width="77" height="77" viewBox="0 0 77 77" fill="none" xmlns="http://www.w3.org/2000/svg">
<path d="M45.8051 38.0645C43.7054 37.8114 41.6145 38.4734 40.0682 39.8799C39.4042 40.484 38.89 41.1552 38.4997 41.7805C38.1094 41.1552 37.5951 40.484 36.931 39.8799C35.3848 38.4734 33.2932 37.8111 31.1941 38.0645C29.0976 38.317 27.2272 39.4538 26.0622 41.1833C25.2017 42.4609 24.7819 43.9955 24.8144 45.7444C24.8516 47.7512 25.4907 49.7365 26.6627 51.4856C27.4742 52.6965 30.6256 56.9273 37.1106 60.5279C37.539 60.7657 38.0193 60.8847 38.4996 60.8847C38.9798 60.8847 39.4601 60.7657 39.8885 60.5279C46.3735 56.9273 49.525 52.6965 50.3364 51.4856C51.5084 49.7365 52.1475 47.7512 52.1847 45.7444C52.2173 43.9955 51.7973 42.4609 50.9369 41.1833C49.7721 39.4538 47.9016 38.317 45.8051 38.0645ZM48.5105 50.2647C47.7682 51.3723 44.8759 55.2476 38.821 58.6095C38.6228 58.7196 38.3765 58.7194 38.1784 58.6095C32.1235 55.2476 29.2312 51.3723 28.4889 50.2647C27.5518 48.8662 27.0408 47.2891 27.0115 45.7039C26.9876 44.414 27.2817 43.3052 27.8855 42.4085C28.6936 41.2088 29.9953 40.4196 31.4571 40.2437C31.6632 40.219 31.8689 40.2067 32.0735 40.2067C33.3239 40.2067 34.5288 40.6637 35.4514 41.5029C36.9073 42.8272 37.4363 44.6468 37.4404 44.6613C37.5715 45.1358 38.0034 45.4632 38.4962 45.4651H38.5001C38.9913 45.4651 39.4236 45.1373 39.5577 44.6651C39.5628 44.6468 40.0918 42.8272 41.5475 41.503C42.6212 40.5264 44.0766 40.0672 45.542 40.2439C47.0038 40.4199 48.3055 41.2089 49.1136 42.4087C49.7175 43.3052 50.0115 44.414 49.9876 45.7039C49.9584 47.2891 49.4475 48.8662 48.5105 50.2647Z" fill="#C4C4C4" stroke="#C4C4C4"/>
<path d="M70.6939 67.3205V57.9416C70.6939 57.3355 70.202 56.8441 69.5952 56.8441C68.9884 56.8441 68.4965 57.3355 68.4965 57.9416V66.8529C68.3053 66.8393 68.113 66.8299 67.9183 66.8299C67.6367 66.8299 67.3585 66.8445 67.0841 66.8728C65.8237 63.7299 62.747 61.5029 59.1555 61.5029C56.145 61.5029 53.347 63.1137 51.8174 65.6671C51.5328 65.6407 51.2487 65.6273 50.9676 65.6273C46.2191 65.6273 42.2942 69.2065 41.7483 73.8053H35.2515C34.7057 69.2065 30.7806 65.6273 26.0323 65.6273C25.7512 65.6273 25.4671 65.6407 25.1825 65.6671C23.653 63.1137 20.8548 61.5029 17.8443 61.5029C14.2527 61.5029 11.1744 63.7294 9.91367 66.8725C9.64001 66.8444 9.36255 66.8299 9.08157 66.8299C8.88703 66.8299 8.69453 66.8393 8.50336 66.8529V39.2831L10.8205 37.3805L38.0128 15.0525C38.2951 14.8206 38.705 14.8206 38.9872 15.0525L68.4965 39.2831V57.9416C68.4965 58.5477 69.0865 57.6029 69.6933 57.6029C70.3001 57.6029 70.6939 58.5477 70.6939 57.9416V41.0875L71.7383 41.9452C72.2175 42.3386 72.7985 42.5412 73.3875 42.5412C73.7655 42.5412 74.147 42.4578 74.5069 42.2879C75.4278 41.8531 75.9999 40.9511 75.9999 39.9338V32.7489C75.9999 31.9774 75.6606 31.2506 75.069 30.7547L40.406 1.69454C39.3014 0.768413 37.6983 0.76856 36.594 1.69454L20.0885 15.532V10.6538C20.993 10.5821 21.7073 9.82556 21.7073 8.90397V5.25287C21.7073 4.28416 20.9183 3.49617 19.9485 3.49617H9.10281C8.13301 3.49617 7.34399 4.2843 7.34399 5.25287V8.90411C7.34399 9.8257 8.05845 10.5822 8.96277 10.6539V19.6527C8.96277 26.7759 9.4547 20.1451 10.0615 20.1451C10.6683 20.1451 11.1065 19.9188 11.1065 19.3127L11.1602 10.6608H17.8909V17.3506L11.1602 22.9934V19.6527C11.1602 19.0466 10.6683 18.5552 10.0615 18.5552C9.4547 18.5552 8.96277 19.0466 8.96277 19.6527V24.8593L1.93098 30.7545C1.33928 31.2504 1.00015 31.9773 1.00015 32.7487V39.9337C1.00015 40.9511 1.57221 41.8531 2.49308 42.2877C3.4141 42.7223 4.47487 42.5912 5.2617 41.9449L6.30607 41.0874V67.3205C3.21296 68.4539 1 71.425 1 74.9025C1 75.5086 1.49193 76 2.09872 76H74.9013C75.5081 76 76 75.5086 76 74.9025C76 71.4248 73.787 68.4539 70.6939 67.3205ZM9.54142 8.46585V5.69098H19.5099V8.46585H9.54142ZM3.86633 40.2493C3.69215 40.3923 3.51914 40.3445 3.43183 40.3032C3.34422 40.2619 3.19743 40.1591 3.19743 39.9337V32.7487C3.19743 32.6277 3.25061 32.5137 3.34364 32.4357L38.0067 3.37588C38.2925 3.13619 38.7074 3.13619 38.9932 3.37588L73.6564 32.4359C73.7491 32.5137 73.8024 32.6277 73.8024 32.7489V39.9338C73.8024 40.159 73.6556 40.2621 73.568 40.3033C73.4806 40.3446 73.3077 40.3926 73.1335 40.2495L40.3827 13.3568C39.8373 12.9089 39.1687 12.685 38.5001 12.685C37.8315 12.685 37.1629 12.9089 36.6175 13.3568L3.86633 40.2493ZM3.30027 73.805C3.81638 71.0869 6.2126 69.0248 9.08172 69.0248C11.9508 69.0248 14.3469 71.0868 14.863 73.805H3.30027ZM17.0867 73.8053C16.6881 70.8895 14.7258 68.4657 12.0733 67.4057C13.0753 65.2202 15.2846 63.6978 17.8443 63.6978C20.2839 63.6978 22.536 65.1222 23.5817 67.3265C23.7941 67.7745 24.2802 68.0242 24.769 67.9367C25.192 67.8608 25.617 67.8223 26.0323 67.8223C29.5677 67.8223 32.5068 70.4207 33.0364 73.8059L17.0867 73.8053ZM43.9635 73.8059C44.4931 70.4207 47.4322 67.8223 50.9676 67.8223C51.3827 67.8223 51.8079 67.8608 52.2308 67.9367C52.7189 68.0245 53.2057 67.7745 53.4181 67.3265C54.4638 65.1222 56.7158 63.6978 59.1555 63.6978C61.7152 63.6978 63.9233 65.2207 64.9251 67.4063C62.2734 68.4666 60.3118 70.89 59.9133 73.8053L43.9635 73.8059ZM62.137 73.805C62.6531 71.0869 65.0492 69.0248 67.9183 69.0248C70.7874 69.0248 73.1835 71.0868 73.6997 73.805H62.137Z" fill="#C4C4C4"/>
<path d="M70.6939 57.9416V67.3205C73.787 68.4539 76 71.4248 76 74.9025C76 75.5086 75.5081 76 74.9013 76H2.09872C1.49193 76 1 75.5086 1 74.9025C1 71.425 3.21296 68.4539 6.30607 67.3205V41.0874L5.2617 41.9449C4.47487 42.5912 3.4141 42.7223 2.49308 42.2877C1.57221 41.8531 1.00015 40.9511 1.00015 39.9337V32.7487C1.00015 31.9773 1.33928 31.2504 1.93098 30.7545L8.96277 24.8593V19.6527M70.6939 57.9416C70.6939 57.3355 70.202 56.8441 69.5952 56.8441C68.9884 56.8441 68.4965 57.3355 68.4965 57.9416M70.6939 57.9416C70.6939 58.5477 70.3001 57.6029 69.6933 57.6029C69.0865 57.6029 68.4965 58.5477 68.4965 57.9416M70.6939 57.9416V41.0875L71.7383 41.9452C72.2175 42.3387 72.7985 42.5412 73.3875 42.5412C73.7655 42.5412 74.147 42.4578 74.5069 42.2879C75.4278 41.8531 75.9999 40.9511 75.9999 39.9338V32.7489C75.9999 31.9774 75.6606 31.2506 75.069 30.7547L40.406 1.69454C39.3014 0.768413 37.6983 0.76856 36.594 1.69454L20.0885 15.532V10.6538C20.993 10.5821 21.7073 9.82556 21.7073 8.90397V5.25287C21.7073 4.28416 20.9183 3.49617 19.9485 3.49617H9.10281C8.13301 3.49617 7.34399 4.2843 7.34399 5.25287V8.90411C7.34399 9.8257 8.05845 10.5822 8.96277 10.6539V19.6527M68.4965 57.9416V66.8529C68.3053 66.8393 68.113 66.8299 67.9183 66.8299C67.6367 66.8299 67.3585 66.8445 67.0841 66.8728C65.8237 63.7299 62.747 61.5029 59.1555 61.5029C56.145 61.5029 53.347 63.1137 51.8174 65.6671C51.5328 65.6407 51.2487 65.6273 50.9676 65.6273C46.2191 65.6273 42.2942 69.2064 41.7483 73.8053H35.2515C34.7057 69.2064 30.7806 65.6273 26.0323 65.6273C25.7512 65.6273 25.4671 65.6407 25.1825 65.6671C23.653 63.1137 20.8548 61.5029 17.8443 61.5029C14.2527 61.5029 11.1744 63.7294 9.91367 66.8725C9.64001 66.8444 9.36255 66.8299 9.08157 66.8299C8.88703 66.8299 8.69453 66.8393 8.50335 66.8529V39.2831L10.8205 37.3805L38.0128 15.0525C38.2951 14.8206 38.705 14.8206 38.9872 15.0525L68.4965 39.2831V57.9416ZM8.96277 19.6527C8.96277 26.7759 9.4547 20.1451 10.0615 20.1451C10.6683 20.1451 11.1065 19.9188 11.1065 19.3127L11.1602 10.6608H17.8909V17.3506L11.1602 22.9934V19.6527C11.1602 19.0466 10.6683 18.5552 10.0615 18.5552C9.4547 18.5552 8.96277 19.0466 8.96277 19.6527ZM9.54142 8.46585V5.69098H19.5099V8.46585H9.54142ZM3.86633 40.2493C3.69215 40.3923 3.51914 40.3445 3.43183 40.3032C3.34422 40.2619 3.19743 40.1591 3.19743 39.9337V32.7487C3.19743 32.6277 3.25061 32.5137 3.34364 32.4357L38.0067 3.37588C38.2925 3.13619 38.7074 3.13619 38.9932 3.37588L73.6564 32.4359C73.7491 32.5137 73.8024 32.6277 73.8024 32.7489V39.9338C73.8024 40.1591 73.6556 40.2621 73.568 40.3033C73.4806 40.3446 73.3077 40.3926 73.1335 40.2495L40.3827 13.3568C39.8373 12.9089 39.1687 12.685 38.5001 12.685C37.8315 12.685 37.1629 12.9089 36.6175 13.3568L3.86633 40.2493ZM3.30027 73.805C3.81638 71.0869 6.2126 69.0248 9.08172 69.0248C11.9508 69.0248 14.3469 71.0868 14.863 73.805H3.30027ZM17.0867 73.8053C16.6881 70.8895 14.7258 68.4657 12.0733 67.4057C13.0753 65.2202 15.2846 63.6978 17.8443 63.6978C20.2839 63.6978 22.536 65.1222 23.5817 67.3265C23.7941 67.7745 24.2802 68.0242 24.769 67.9367C25.192 67.8608 25.617 67.8223 26.0323 67.8223C29.5677 67.8223 32.5068 70.4207 33.0364 73.8059L17.0867 73.8053ZM43.9635 73.8059C44.4931 70.4207 47.4322 67.8223 50.9676 67.8223C51.3827 67.8223 51.8079 67.8608 52.2308 67.9367C52.7189 68.0245 53.2057 67.7745 53.4181 67.3265C54.4638 65.1222 56.7158 63.6978 59.1555 63.6978C61.7152 63.6978 63.9233 65.2207 64.9251 67.4063C62.2734 68.4666 60.3118 70.89 59.9133 73.8053L43.9635 73.8059ZM62.137 73.805C62.6531 71.0869 65.0492 69.0248 67.9183 69.0248C70.7874 69.0248 73.1835 71.0868 73.6997 73.805H62.137Z" stroke="#C4C4C4"/>
</svg>
