<svg width="13" height="12" viewBox="0 0 13 12" fill="none" xmlns="http://www.w3.org/2000/svg">
<mask id="path-1-inside-1" fill="white">
<path d="M10.0074 7.43356C9.74789 7.17776 9.43492 7.041 9.10322 7.041C8.7742 7.041 8.45856 7.17523 8.18838 7.43103L7.34309 8.22883C7.27354 8.19337 7.204 8.16044 7.13712 8.12752C7.04082 8.08193 6.94987 8.03887 6.8723 7.99329C6.08051 7.51714 5.36094 6.89663 4.6708 6.09377C4.33643 5.69361 4.11173 5.35676 3.94856 5.01485C4.16791 4.8249 4.37121 4.62735 4.56915 4.4374C4.64405 4.36648 4.71895 4.29304 4.79385 4.22212C5.35559 3.69026 5.35559 3.00137 4.79385 2.4695L4.06358 1.77808C3.98066 1.69957 3.89506 1.61852 3.81481 1.53748C3.65431 1.38045 3.48579 1.21836 3.31192 1.0664C3.05245 0.823259 2.74215 0.694092 2.4158 0.694092C2.08946 0.694092 1.77381 0.823259 1.50631 1.0664C1.50364 1.06893 1.50364 1.06893 1.50096 1.07146L0.591475 1.94017C0.249079 2.26436 0.0538066 2.65945 0.0110071 3.11787C-0.0531921 3.85741 0.176855 4.5463 0.353403 4.99712C0.786748 6.1039 1.43409 7.12964 2.39975 8.22883C3.57139 9.55342 4.9811 10.5994 6.59143 11.3364C7.20667 11.6125 8.02789 11.9392 8.9454 11.9949C9.00157 11.9975 9.06042 12 9.11392 12C9.73184 12 10.2508 11.7898 10.6574 11.3719C10.6601 11.3668 10.6654 11.3643 10.6681 11.3592C10.8072 11.1997 10.9677 11.0553 11.1362 10.9008C11.2512 10.797 11.3689 10.6881 11.4839 10.5741C11.7488 10.3132 11.8879 10.0093 11.8879 9.69778C11.8879 9.38373 11.7461 9.08234 11.4759 8.82907L10.0074 7.43356ZM10.965 10.1005C10.9623 10.1005 10.9623 10.103 10.965 10.1005C10.8607 10.2069 10.7537 10.3031 10.6387 10.4095C10.4648 10.5665 10.2882 10.7311 10.1224 10.916C9.85221 11.1895 9.53389 11.3187 9.1166 11.3187C9.07647 11.3187 9.03367 11.3187 8.99355 11.3162C8.19908 11.268 7.46079 10.9743 6.90707 10.7235C5.39304 10.0296 4.06358 9.04435 2.95882 7.79574C2.04666 6.7548 1.43677 5.79238 1.03284 4.75905C0.784073 4.12841 0.693124 3.63707 0.733248 3.17359C0.759998 2.87727 0.880372 2.6316 1.10239 2.42138L2.01456 1.55774C2.14563 1.44123 2.28473 1.37792 2.42115 1.37792C2.58968 1.37792 2.7261 1.47416 2.8117 1.5552C2.81437 1.55774 2.81705 1.56027 2.81972 1.5628C2.9829 1.70717 3.13804 1.85659 3.30122 2.01615C3.38414 2.0972 3.46974 2.17824 3.55534 2.26182L4.28561 2.95325C4.56915 3.22171 4.56915 3.46991 4.28561 3.73838C4.20803 3.81183 4.13313 3.88527 4.05556 3.95619C3.83086 4.174 3.61686 4.37661 3.38414 4.57416C3.37879 4.57923 3.37344 4.58176 3.37077 4.58683C3.14072 4.80464 3.18352 5.01738 3.23167 5.16175C3.23434 5.16934 3.23702 5.17694 3.23969 5.18454C3.42962 5.62016 3.69711 6.03046 4.10371 6.51926L4.10638 6.5218C4.84467 7.38291 5.62309 8.05407 6.48175 8.56821C6.59143 8.63406 6.70378 8.68724 6.81078 8.7379C6.90707 8.78348 6.99802 8.82654 7.0756 8.87213C7.0863 8.87719 7.097 8.88479 7.1077 8.88986C7.19865 8.93291 7.28425 8.95317 7.37252 8.95317C7.59454 8.95317 7.73364 8.82147 7.77911 8.77842L8.69395 7.91224C8.7849 7.82613 8.92935 7.72229 9.09787 7.72229C9.26372 7.72229 9.40014 7.82106 9.48307 7.90718C9.48574 7.90971 9.48574 7.90971 9.48842 7.91224L10.9623 9.30775C11.2378 9.56608 11.2378 9.83202 10.965 10.1005Z"/>
</mask>
<path d="M10.0074 7.43356C9.74789 7.17776 9.43492 7.041 9.10322 7.041C8.7742 7.041 8.45856 7.17523 8.18838 7.43103L7.34309 8.22883C7.27354 8.19337 7.204 8.16044 7.13712 8.12752C7.04082 8.08193 6.94987 8.03887 6.8723 7.99329C6.08051 7.51714 5.36094 6.89663 4.6708 6.09377C4.33643 5.69361 4.11173 5.35676 3.94856 5.01485C4.16791 4.8249 4.37121 4.62735 4.56915 4.4374C4.64405 4.36648 4.71895 4.29304 4.79385 4.22212C5.35559 3.69026 5.35559 3.00137 4.79385 2.4695L4.06358 1.77808C3.98066 1.69957 3.89506 1.61852 3.81481 1.53748C3.65431 1.38045 3.48579 1.21836 3.31192 1.0664C3.05245 0.823259 2.74215 0.694092 2.4158 0.694092C2.08946 0.694092 1.77381 0.823259 1.50631 1.0664C1.50364 1.06893 1.50364 1.06893 1.50096 1.07146L0.591475 1.94017C0.249079 2.26436 0.0538066 2.65945 0.0110071 3.11787C-0.0531921 3.85741 0.176855 4.5463 0.353403 4.99712C0.786748 6.1039 1.43409 7.12964 2.39975 8.22883C3.57139 9.55342 4.9811 10.5994 6.59143 11.3364C7.20667 11.6125 8.02789 11.9392 8.9454 11.9949C9.00157 11.9975 9.06042 12 9.11392 12C9.73184 12 10.2508 11.7898 10.6574 11.3719C10.6601 11.3668 10.6654 11.3643 10.6681 11.3592C10.8072 11.1997 10.9677 11.0553 11.1362 10.9008C11.2512 10.797 11.3689 10.6881 11.4839 10.5741C11.7488 10.3132 11.8879 10.0093 11.8879 9.69778C11.8879 9.38373 11.7461 9.08234 11.4759 8.82907L10.0074 7.43356ZM10.965 10.1005C10.9623 10.1005 10.9623 10.103 10.965 10.1005C10.8607 10.2069 10.7537 10.3031 10.6387 10.4095C10.4648 10.5665 10.2882 10.7311 10.1224 10.916C9.85221 11.1895 9.53389 11.3187 9.1166 11.3187C9.07647 11.3187 9.03367 11.3187 8.99355 11.3162C8.19908 11.268 7.46079 10.9743 6.90707 10.7235C5.39304 10.0296 4.06358 9.04435 2.95882 7.79574C2.04666 6.7548 1.43677 5.79238 1.03284 4.75905C0.784073 4.12841 0.693124 3.63707 0.733248 3.17359C0.759998 2.87727 0.880372 2.6316 1.10239 2.42138L2.01456 1.55774C2.14563 1.44123 2.28473 1.37792 2.42115 1.37792C2.58968 1.37792 2.7261 1.47416 2.8117 1.5552C2.81437 1.55774 2.81705 1.56027 2.81972 1.5628C2.9829 1.70717 3.13804 1.85659 3.30122 2.01615C3.38414 2.0972 3.46974 2.17824 3.55534 2.26182L4.28561 2.95325C4.56915 3.22171 4.56915 3.46991 4.28561 3.73838C4.20803 3.81183 4.13313 3.88527 4.05556 3.95619C3.83086 4.174 3.61686 4.37661 3.38414 4.57416C3.37879 4.57923 3.37344 4.58176 3.37077 4.58683C3.14072 4.80464 3.18352 5.01738 3.23167 5.16175C3.23434 5.16934 3.23702 5.17694 3.23969 5.18454C3.42962 5.62016 3.69711 6.03046 4.10371 6.51926L4.10638 6.5218C4.84467 7.38291 5.62309 8.05407 6.48175 8.56821C6.59143 8.63406 6.70378 8.68724 6.81078 8.7379C6.90707 8.78348 6.99802 8.82654 7.0756 8.87213C7.0863 8.87719 7.097 8.88479 7.1077 8.88986C7.19865 8.93291 7.28425 8.95317 7.37252 8.95317C7.59454 8.95317 7.73364 8.82147 7.77911 8.77842L8.69395 7.91224C8.7849 7.82613 8.92935 7.72229 9.09787 7.72229C9.26372 7.72229 9.40014 7.82106 9.48307 7.90718C9.48574 7.90971 9.48574 7.90971 9.48842 7.91224L10.9623 9.30775C11.2378 9.56608 11.2378 9.83202 10.965 10.1005Z" fill="white"/>
<path d="M10.0074 7.43356L2.98685 14.5548L3.05228 14.6193L3.11889 14.6826L10.0074 7.43356ZM8.18838 7.43103L15.0522 14.7035L15.0579 14.698L15.0637 14.6926L8.18838 7.43103ZM7.34309 8.22883L2.8011 17.1378L9.08079 20.3393L14.2069 15.5013L7.34309 8.22883ZM7.13712 8.12752L11.5542 -0.844071L11.4853 -0.877985L11.4159 -0.910837L7.13712 8.12752ZM6.8723 7.99329L1.71883 16.5631L1.76213 16.5891L1.80569 16.6147L6.8723 7.99329ZM4.6708 6.09377L-3.00291 12.5058L-2.9581 12.5594L-2.91254 12.6124L4.6708 6.09377ZM3.94856 5.01485L-2.5978 -2.54459L-8.35865 2.44421L-5.07638 9.32188L3.94856 5.01485ZM4.56915 4.4374L-2.30615 -2.82416L-2.33049 -2.80111L-2.35468 -2.7779L4.56915 4.4374ZM4.79385 4.22212L11.6692 11.4837L4.79385 4.22212ZM4.79385 2.4695L11.6692 -4.79205L11.6692 -4.79205L4.79385 2.4695ZM4.06358 1.77808L-2.81172 9.03963L-2.81172 9.03964L4.06358 1.77808ZM3.81481 1.53748L10.9207 -5.49857L10.8649 -5.55497L10.8081 -5.61048L3.81481 1.53748ZM3.31192 1.0664L-3.52574 8.36341L-3.39927 8.48192L-3.26877 8.59598L3.31192 1.0664ZM1.50631 1.0664L-5.21979 -6.33357L-5.29509 -6.26512L-5.36899 -6.19516L1.50631 1.0664ZM1.50096 1.07146L-5.37434 -6.19009L-5.39027 -6.17501L-5.40613 -6.15986L1.50096 1.07146ZM0.591475 1.94017L7.46678 9.20173L7.48271 9.18665L7.49857 9.1715L0.591475 1.94017ZM0.0110071 3.11787L-9.94569 2.18827L-9.94871 2.22064L-9.95153 2.25303L0.0110071 3.11787ZM0.353403 4.99712L9.6651 1.35126L9.66484 1.3506L0.353403 4.99712ZM2.39975 8.22883L-5.11287 14.8289L-5.10173 14.8415L-5.09055 14.8542L2.39975 8.22883ZM6.59143 11.3364L2.42982 20.4293L2.46365 20.4448L2.49761 20.4601L6.59143 11.3364ZM8.9454 11.9949L8.33923 21.9765L8.41708 21.9813L8.495 21.9848L8.9454 11.9949ZM10.6574 11.3719L17.8247 18.3454L18.8281 17.3141L19.5001 16.0416L10.6574 11.3719ZM10.6681 11.3592L3.13025 4.78799L2.36744 5.663L1.82537 6.68948L10.6681 11.3592ZM11.1362 10.9008L4.43519 3.4781L4.40681 3.50373L4.37861 3.52958L11.1362 10.9008ZM11.4839 10.5741L4.46628 3.45002L4.45586 3.46029L4.44546 3.47059L11.4839 10.5741ZM11.4759 8.82907L4.58744 16.0781L4.61202 16.1015L4.63676 16.1247L11.4759 8.82907ZM10.965 10.1005V20.1005H15.0598L17.9786 17.2286L10.965 10.1005ZM10.965 10.1005L18.1045 17.1025L4.0897 2.83892L10.965 10.1005ZM10.6387 10.4095L17.341 17.8309L17.3849 17.7913L17.4282 17.7512L10.6387 10.4095ZM10.1224 10.916L17.237 17.9433L17.4059 17.7723L17.5663 17.5934L10.1224 10.916ZM8.99355 11.3162L9.6235 1.33603L9.61082 1.33523L9.59814 1.33446L8.99355 11.3162ZM6.90707 10.7235L2.74041 19.8141L2.76121 19.8237L2.78206 19.8331L6.90707 10.7235ZM2.95882 7.79574L-4.56212 14.3863L-4.54635 14.4043L-4.53049 14.4222L2.95882 7.79574ZM1.03284 4.75905L10.3466 1.1184L10.3409 1.10393L10.3352 1.08948L1.03284 4.75905ZM0.733248 3.17359L-9.22625 2.27453L-9.2279 2.29281L-9.22949 2.31109L0.733248 3.17359ZM1.10239 2.42138L7.9777 9.68294L7.9777 9.68294L1.10239 2.42138ZM2.01456 1.55774L-4.62888 -5.91653L-4.74649 -5.812L-4.86075 -5.70382L2.01456 1.55774ZM2.8117 1.5552L9.687 -5.70635L2.8117 1.5552ZM2.81972 1.5628L-4.05558 8.82436L-3.93295 8.94047L-3.80647 9.05237L2.81972 1.5628ZM3.30122 2.01615L-3.69023 9.16595L-3.6884 9.16774L3.30122 2.01615ZM3.55534 2.26182L-3.43078 9.41683L-3.37578 9.47053L-3.31997 9.52338L3.55534 2.26182ZM4.05556 3.95619L-2.69163 -3.42456L-2.79959 -3.32586L-2.90462 -3.22405L4.05556 3.95619ZM3.38414 4.57416L-3.08731 -3.0495L-3.29415 -2.87393L-3.49116 -2.68739L3.38414 4.57416ZM3.37077 4.58683L10.2461 11.8484L11.4435 10.7147L12.2135 9.25657L3.37077 4.58683ZM3.23167 5.16175L-6.2546 8.32571L-6.22837 8.40435L-6.20084 8.48255L3.23167 5.16175ZM3.23969 5.18454L-6.19282 8.50535L-6.07217 8.84802L-5.92699 9.18104L3.23969 5.18454ZM4.10371 6.51926L-3.58426 12.9142L-3.20372 13.3717L-2.7716 13.7808L4.10371 6.51926ZM4.10638 6.5218L11.6981 0.0128942L11.3595 -0.382067L10.9817 -0.739757L4.10638 6.5218ZM6.48175 8.56821L11.6293 -0.00515789L11.6189 -0.0114102L6.48175 8.56821ZM6.81078 8.7379L2.53198 17.7763L6.81078 8.7379ZM7.0756 8.87213L2.00899 17.4936L2.39359 17.7196L2.7968 17.9105L7.0756 8.87213ZM7.77911 8.77842L0.903809 1.51686L7.77911 8.77842ZM8.69395 7.91224L15.5693 15.1738L8.69395 7.91224ZM9.48307 7.90718L2.27995 14.8437L2.44011 15.01L2.60776 15.1687L9.48307 7.90718ZM9.48842 7.91224L2.61311 15.1738L9.48842 7.91224ZM10.9623 9.30775L4.08702 16.5693L4.1047 16.586L4.12246 16.6027L10.9623 9.30775ZM17.0279 0.312302C15.1193 -1.56923 12.3586 -2.959 9.10322 -2.959V17.041C6.51127 17.041 4.37644 15.9248 2.98685 14.5548L17.0279 0.312302ZM9.10322 -2.959C5.88617 -2.959 3.18584 -1.60367 1.31308 0.169476L15.0637 14.6926C13.7313 15.9541 11.6622 17.041 9.10322 17.041V-2.959ZM1.32458 0.158606L0.479288 0.956402L14.2069 15.5013L15.0522 14.7035L1.32458 0.158606ZM11.8851 -0.680176C11.7691 -0.739293 11.6703 -0.787566 11.6189 -0.812622C11.5982 -0.822692 11.5639 -0.839379 11.5603 -0.84111C11.548 -0.847089 11.5486 -0.846825 11.5542 -0.844071L2.72004 17.0991C2.75907 17.1183 2.79344 17.1351 2.81516 17.1456C2.82545 17.1506 2.8374 17.1564 2.84349 17.1594C2.85116 17.1631 2.85577 17.1653 2.8593 17.1671C2.86656 17.1706 2.86307 17.1689 2.85415 17.1645C2.84482 17.1599 2.82619 17.1506 2.8011 17.1378L11.8851 -0.680176ZM11.4159 -0.910837C11.3491 -0.94245 11.3959 -0.920706 11.4578 -0.889863C11.5249 -0.856436 11.7056 -0.765286 11.9389 -0.628168L1.80569 16.6147C2.11659 16.7974 2.38154 16.9329 2.53756 17.0107C2.6884 17.0858 2.8288 17.1519 2.85832 17.1659L11.4159 -0.910837ZM12.0258 -0.576528C12.1336 -0.511691 12.2153 -0.449052 12.2656 -0.405667C12.3131 -0.364711 12.3085 -0.361624 12.2541 -0.424889L-2.91254 12.6124C-1.62474 14.1106 -0.107301 15.465 1.71883 16.5631L12.0258 -0.576528ZM12.3445 -0.318261C12.3724 -0.284923 12.6752 0.082819 12.9735 0.707821L-5.07638 9.32188C-4.45176 10.6307 -3.69951 11.6721 -3.00291 12.5058L12.3445 -0.318261ZM10.4949 12.5743C10.9522 12.1783 11.3679 11.7727 11.493 11.6527L-2.35468 -2.7779C-2.38215 -2.75154 -2.41066 -2.72414 -2.43328 -2.7024C-2.45749 -2.67915 -2.47808 -2.65938 -2.49759 -2.64069C-2.53677 -2.60316 -2.56376 -2.57752 -2.58477 -2.55775C-2.62774 -2.51733 -2.6262 -2.52 -2.5978 -2.54459L10.4949 12.5743ZM11.4445 11.699C11.5194 11.628 11.5888 11.561 11.6207 11.5302C11.6637 11.4888 11.6692 11.4836 11.6692 11.4837L-2.08146 -3.03943C-2.15642 -2.96846 -2.22579 -2.90151 -2.25773 -2.87073C-2.30069 -2.82933 -2.30622 -2.82409 -2.30615 -2.82416L11.4445 11.699ZM11.6692 11.4837C13.5328 9.71915 15.2152 6.91789 15.2152 3.34581C15.2152 -0.226267 13.5328 -3.02752 11.6692 -4.79205L-2.08146 9.73106C-3.38337 8.49839 -4.78484 6.30751 -4.78484 3.34581C-4.78484 0.38411 -3.38337 -1.80677 -2.08146 -3.03943L11.6692 11.4837ZM11.6692 -4.79205L10.9389 -5.48347L-2.81172 9.03964L-2.08145 9.73106L11.6692 -4.79205ZM10.9389 -5.48347C10.9282 -5.49357 10.9196 -5.50171 10.9113 -5.50959C10.9032 -5.51729 10.8965 -5.52361 10.8907 -5.5291C10.879 -5.5403 10.8731 -5.54591 10.8709 -5.54809C10.8687 -5.55017 10.8723 -5.5467 10.8802 -5.53899C10.888 -5.53128 10.902 -5.51747 10.9207 -5.49857L-3.2911 8.57352C-3.07782 8.78892 -2.87313 8.98149 -2.81172 9.03963L10.9389 -5.48347ZM10.8081 -5.61048C10.6226 -5.79206 10.2884 -6.11726 9.8926 -6.46318L-3.26877 8.59598C-3.30063 8.56813 -3.31094 8.55783 -3.29244 8.57528C-3.27308 8.59353 -3.24047 8.62483 -3.17853 8.68543L10.8081 -5.61048ZM10.1496 -6.23062C8.22383 -8.03514 5.52709 -9.30591 2.4158 -9.30591V10.6941C-0.0427923 10.6941 -2.11894 9.68166 -3.52574 8.36341L10.1496 -6.23062ZM2.4158 -9.30591C-0.671634 -9.30591 -3.32476 -8.05603 -5.21979 -6.33357L8.23242 8.46636C6.87239 9.70255 4.85055 10.6941 2.4158 10.6941V-9.30591ZM-5.36899 -6.19516C-5.37039 -6.19383 -5.37111 -6.19315 -5.3718 -6.19249C-5.37245 -6.19189 -5.37307 -6.1913 -5.37434 -6.19009L8.37627 8.33302C8.37767 8.33169 8.37839 8.33101 8.37908 8.33035C8.37973 8.32974 8.38035 8.32916 8.38162 8.32795L-5.36899 -6.19516ZM-5.40613 -6.15986L-6.31562 -5.29115L7.49857 9.1715L8.40806 8.30279L-5.40613 -6.15986ZM-6.28383 -5.32138C-8.33182 -3.38233 -9.67049 -0.75935 -9.94569 2.18827L9.96771 4.04747C9.7781 6.07826 8.82998 7.91104 7.46678 9.20173L-6.28383 -5.32138ZM-9.95153 2.25303C-10.2242 5.39386 -9.25541 7.8843 -8.95804 8.64364L9.66484 1.3506C9.66659 1.35506 9.69233 1.42068 9.72589 1.52385C9.75946 1.62702 9.80681 1.78568 9.85239 1.99014C9.93888 2.37816 10.0521 3.07719 9.97354 3.98271L-9.95153 2.25303ZM-8.95829 8.64298C-8.02106 11.0367 -6.68493 13.0394 -5.11287 14.8289L9.91237 1.62879C9.71623 1.40552 9.64132 1.29086 9.62756 1.26911C9.62062 1.25814 9.62471 1.26365 9.63473 1.28336C9.64491 1.30339 9.65568 1.3272 9.6651 1.35126L-8.95829 8.64298ZM-5.09055 14.8542C-2.99516 17.2231 -0.452052 19.1104 2.42982 20.4293L10.753 2.24352C10.4142 2.08846 10.1379 1.88371 9.89006 1.60347L-5.09055 14.8542ZM2.49761 20.4601C3.35642 20.8454 5.54221 21.8067 8.33923 21.9765L9.55157 2.01332C10.0826 2.04557 10.4554 2.14689 10.6185 2.1975C10.7765 2.24651 10.8339 2.2795 10.6852 2.2128L2.49761 20.4601ZM8.495 21.9848C8.52127 21.986 8.80017 22 9.11392 22V1.99999C9.23711 1.99999 9.32851 2.00278 9.36467 2.00399C9.40041 2.00518 9.42357 2.00633 9.3958 2.00508L8.495 21.9848ZM9.11392 22C12.2334 22 15.4016 20.8358 17.8247 18.3454L3.49009 4.39837C4.2094 3.65907 5.12393 3.01584 6.19933 2.57872C7.26251 2.14656 8.27419 1.99999 9.11392 1.99999V22ZM19.5001 16.0416C19.3796 16.2699 19.2557 16.483 19.1314 16.6813C19.0073 16.8793 18.8836 17.0613 18.7637 17.2272C18.6439 17.393 18.5278 17.5429 18.4191 17.6766C18.3105 17.8103 18.2083 17.9289 18.1161 18.032C18.0242 18.135 17.9403 18.2244 17.8687 18.299C17.8327 18.3364 17.7993 18.3706 17.7689 18.4012C17.7386 18.4319 17.7108 18.4596 17.6863 18.4837C17.6618 18.5079 17.64 18.5292 17.6215 18.5471C17.6031 18.565 17.5873 18.5802 17.575 18.5919C17.5629 18.6035 17.5531 18.6129 17.5472 18.6185C17.5442 18.6213 17.5417 18.6236 17.5403 18.625C17.539 18.6262 17.5378 18.6273 17.5381 18.627C17.5381 18.627 17.5382 18.627 17.5383 18.6269C17.5384 18.6268 17.5386 18.6266 17.5388 18.6264C17.5392 18.626 17.5399 18.6254 17.5407 18.6246C17.5422 18.6231 17.5448 18.6207 17.5479 18.6177C17.5541 18.6119 17.5641 18.6023 17.5765 18.5905C17.589 18.5785 17.6051 18.5631 17.6238 18.545C17.6425 18.5268 17.6646 18.5053 17.6893 18.4809C17.7141 18.4564 17.742 18.4286 17.7726 18.3976C17.8033 18.3667 17.8369 18.3323 17.8731 18.2946C17.9453 18.2196 18.0295 18.1296 18.122 18.0262C18.2146 17.9226 18.3173 17.8034 18.4263 17.6692C18.5355 17.5349 18.6519 17.3845 18.7721 17.2182C18.8925 17.0516 19.0166 16.8691 19.1411 16.6704C19.2657 16.4716 19.3899 16.2578 19.5108 16.029L1.82537 6.68948C1.9459 6.46125 2.06978 6.24809 2.19401 6.04985C2.31814 5.85178 2.44186 5.66983 2.56178 5.50388C2.68159 5.33809 2.79763 5.18824 2.90636 5.05447C3.01497 4.92085 3.11718 4.80217 3.20931 4.69908C3.30131 4.59613 3.38511 4.50667 3.45676 4.43215C3.49273 4.39475 3.52617 4.36055 3.55654 4.32987C3.58689 4.29919 3.61463 4.27156 3.63914 4.24736C3.66363 4.22319 3.68547 4.20188 3.70393 4.18399C3.72234 4.16615 3.73817 4.15094 3.75042 4.13922C3.76257 4.1276 3.77239 4.11826 3.77829 4.11266C3.78131 4.1098 3.78373 4.1075 3.78518 4.10613C3.78649 4.10488 3.78761 4.10383 3.78735 4.10407C3.78735 4.10407 3.78726 4.10416 3.78716 4.10425C3.78705 4.10436 3.78687 4.10452 3.78667 4.10472C3.78626 4.10511 3.7856 4.10572 3.7848 4.10648C3.78323 4.10797 3.78068 4.11039 3.77754 4.11337C3.77139 4.11921 3.76131 4.12879 3.74892 4.14065C3.73642 4.15261 3.72034 4.16805 3.70168 4.18614C3.68298 4.20427 3.66089 4.22582 3.63616 4.25023C3.6114 4.27467 3.58341 4.30255 3.55282 4.33347C3.52221 4.3644 3.48852 4.39884 3.45232 4.43649C3.38019 4.5115 3.29592 4.60148 3.20346 4.70493C3.11087 4.80854 3.0082 4.92775 2.89916 5.0619C2.79 5.19621 2.67353 5.3466 2.55332 5.51296C2.43299 5.67947 2.30888 5.86201 2.18438 6.06067C2.05977 6.2595 1.93553 6.47328 1.81467 6.70214L19.5001 16.0416ZM18.2059 17.9305C18.0117 18.1532 17.8584 18.3018 17.8123 18.346C17.7875 18.3697 17.7763 18.3798 17.7926 18.3648C17.8182 18.3411 17.8288 18.3316 17.8938 18.272L4.37861 3.52958C4.36336 3.54356 3.72018 4.11129 3.13025 4.78799L18.2059 17.9305ZM17.8372 18.3235C18.0092 18.1682 18.2532 17.9443 18.5224 17.6776L4.44546 3.47059C4.4567 3.45946 4.46512 3.4513 4.47025 3.44637C4.47537 3.44145 4.47772 3.43926 4.47678 3.44014C4.47583 3.44104 4.47215 3.44447 4.46513 3.45091C4.45808 3.45737 4.44837 3.46621 4.43519 3.4781L17.8372 18.3235ZM18.5016 17.6982C20.3017 15.9249 21.8879 13.169 21.8879 9.69778H1.88787C1.88787 6.84962 3.19579 4.70154 4.46628 3.45002L18.5016 17.6982ZM21.8879 9.69778C21.8879 6.15622 20.237 3.33514 18.3151 1.53346L4.63676 16.1247C3.25518 14.8295 1.88787 12.6112 1.88787 9.69778H21.8879ZM18.3644 1.58001L16.8958 0.184503L3.11889 14.6826L4.58744 16.0781L18.3644 1.58001ZM10.965 0.10048C9.40236 0.10048 7.59961 0.471732 5.8708 1.49476C5.03436 1.98973 4.055 2.73501 3.17236 3.83186C2.47528 4.6981 0.962995 6.87643 0.962995 10.1014C0.962995 11.899 1.46112 14.1018 2.9671 16.107C4.47291 18.1119 6.43946 19.1917 8.12593 19.6907C11.1082 20.573 13.5249 19.8037 14.3094 19.5252C16.2346 18.8416 17.4368 17.7441 17.8403 17.362L4.0897 2.83892C4.49187 2.45815 5.69302 1.36124 7.6176 0.677908C8.40172 0.399503 10.8182 -0.369815 13.8003 0.512519C15.4867 1.01148 17.4532 2.09125 18.959 4.0961C20.4649 6.10118 20.963 8.30396 20.963 10.1014C20.963 13.3263 19.4508 15.5044 18.7539 16.3704C17.8714 17.4671 16.8923 18.2121 16.0562 18.7069C14.3281 19.7295 12.5263 20.1005 10.965 20.1005V0.10048ZM3.82551 3.09851C3.86986 3.05329 3.90647 3.01732 3.93205 2.99256C3.95713 2.9683 3.97348 2.953 3.97569 2.95093C3.97696 2.94975 3.97577 2.95086 3.97099 2.95529C3.96603 2.95988 3.9591 2.96628 3.94808 2.97643C3.94261 2.98147 3.93682 2.9868 3.92985 2.99321C3.92328 2.99927 3.91524 3.00666 3.90721 3.01406C3.89097 3.02901 3.87089 3.04752 3.84907 3.0677L17.4282 17.7512C17.4477 17.7332 17.4583 17.7235 17.4989 17.6861C17.5313 17.6563 17.5809 17.6106 17.636 17.559C17.7469 17.4553 17.9137 17.297 18.1045 17.1025L3.82551 3.09851ZM3.93627 2.98801C3.70532 3.19659 3.20866 3.64752 2.67846 4.23859L17.5663 17.5934C17.4581 17.7141 17.3742 17.7972 17.3354 17.8347C17.3001 17.8689 17.2894 17.8776 17.341 17.8309L3.93627 2.98801ZM3.00778 3.88874C3.73225 3.15527 4.71171 2.43686 5.94735 1.94053C7.16167 1.45277 8.27641 1.3187 9.1166 1.3187V21.3187C12.0042 21.3187 14.9499 20.2588 17.237 17.9433L3.00778 3.88874ZM9.1166 1.3187C9.08445 1.3187 9.13966 1.31851 9.20779 1.31955C9.28016 1.32066 9.4301 1.32382 9.6235 1.33603L8.3636 21.2963C8.59712 21.311 8.78852 21.3155 8.90236 21.3172C9.01195 21.3189 9.10862 21.3187 9.1166 21.3187V1.3187ZM9.59814 1.33446C10.2208 1.37217 10.66 1.49364 10.8542 1.55459C11.0496 1.61592 11.1394 1.66253 11.0321 1.61395L2.78206 19.8331C3.56499 20.1876 5.68707 21.1342 8.38896 21.2979L9.59814 1.33446ZM11.0737 1.63293C10.8253 1.51908 10.6281 1.37262 10.4481 1.16926L-4.53049 14.4222C-2.5009 16.7161 -0.039263 18.5401 2.74041 19.8141L11.0737 1.63293ZM10.4798 1.20518C10.3016 1.00182 10.2457 0.911904 10.2505 0.919349C10.253 0.923416 10.2671 0.946054 10.287 0.985132C10.3071 1.02463 10.3277 1.07015 10.3466 1.1184L-8.28089 8.39969C-7.36622 10.7397 -6.05941 12.6776 -4.56212 14.3863L10.4798 1.20518ZM10.3352 1.08948C10.4291 1.32746 10.8337 2.44539 10.696 4.03608L-9.22949 2.31109C-9.44745 4.82875 -8.86096 6.92936 -8.26953 8.42862L10.3352 1.08948ZM10.6928 4.07265C10.605 5.04463 10.3421 6.11026 9.82251 7.1694C9.30525 8.22384 8.63946 9.05638 7.9777 9.68294L-5.77291 -4.84017C-7.71458 -3.00179 -8.97456 -0.513707 -9.22625 2.27453L10.6928 4.07265ZM7.9777 9.68294L8.88986 8.81929L-4.86075 -5.70382L-5.77291 -4.84017L7.9777 9.68294ZM8.658 9.03201C7.59739 9.97472 5.47147 11.3779 2.42115 11.3779V-8.62208C-0.902014 -8.62208 -3.30613 -7.09225 -4.62888 -5.91653L8.658 9.03201ZM2.42115 11.3779C-1.21798 11.3779 -3.45975 9.38849 -4.06361 8.81676L9.687 -5.70635C8.91195 -6.44018 6.39734 -8.62208 2.42115 -8.62208V11.3779ZM-4.06361 8.81676C-4.06235 8.81795 -4.06108 8.81915 -4.05973 8.82043C-4.05841 8.82168 -4.057 8.82301 -4.05558 8.82436L9.69503 -5.69875C9.69377 -5.69994 9.6925 -5.70114 9.69115 -5.70242C9.68983 -5.70368 9.68842 -5.70501 9.687 -5.70635L-4.06361 8.81676ZM-3.80647 9.05237C-3.82879 9.03262 -3.83417 9.02703 -3.81484 9.04533C-3.79309 9.06592 -3.75799 9.09969 -3.69023 9.16595L10.2927 -5.13365C10.1097 -5.31261 9.80622 -5.60799 9.44592 -5.92676L-3.80647 9.05237ZM-3.6884 9.16774C-3.61339 9.24105 -3.54232 9.30934 -3.50449 9.34572C-3.45724 9.39115 -3.44191 9.40596 -3.43078 9.41683L10.5415 -4.89318C10.467 -4.96589 10.3967 -5.0334 10.359 -5.06964C10.3119 -5.11494 10.2987 -5.1277 10.2908 -5.13544L-3.6884 9.16774ZM-3.31997 9.52338L-2.5897 10.2148L11.1609 -4.30831L10.4306 -4.99973L-3.31997 9.52338ZM-2.5897 10.2148C-3.37758 9.46883 -5.50173 7.14833 -5.50173 3.34581C-5.50173 -0.456706 -3.37758 -2.77721 -2.5897 -3.52318L11.1609 10.9999C12.2323 9.9855 14.4983 7.40666 14.4983 3.34581C14.4983 -0.71504 12.2323 -3.29387 11.1609 -4.30831L-2.5897 10.2148ZM-2.5897 -3.52318C-2.62882 -3.48614 -2.66338 -3.4531 -2.68672 -3.43075C-2.69756 -3.42038 -2.71059 -3.4079 -2.71747 -3.40131C-2.72604 -3.39311 -2.73172 -3.38767 -2.73631 -3.38328C-2.74576 -3.37426 -2.74467 -3.37535 -2.73812 -3.38151C-2.73114 -3.38808 -2.7148 -3.40338 -2.69163 -3.42456L10.8027 11.3369C10.9228 11.2272 11.0231 11.1316 11.0775 11.0797C11.1009 11.0574 11.1347 11.025 11.1424 11.0176C11.1573 11.0033 11.1612 10.9996 11.1609 10.9999L-2.5897 -3.52318ZM-2.90462 -3.22405C-2.99396 -3.13746 -3.04301 -3.09098 -3.07462 -3.06168C-3.10297 -3.03541 -3.10432 -3.03506 -3.08731 -3.0495L9.85559 12.1978C10.3464 11.7812 10.7507 11.3934 11.0157 11.1364L-2.90462 -3.22405ZM-3.49116 -2.68739C-3.19492 -2.96788 -2.94548 -3.16871 -2.83856 -3.25362C-2.79438 -3.2887 -2.7458 -3.32644 -2.77071 -3.30701C-2.77499 -3.30367 -2.84241 -3.2513 -2.92503 -3.18425C-3.19288 -2.96688 -4.49813 -1.92695 -5.47194 -0.0829158L12.2135 9.25657C11.2423 11.0955 9.9411 12.1317 9.67794 12.3452C9.59648 12.4113 9.53028 12.4628 9.52723 12.4651C9.50357 12.4836 9.55343 12.4449 9.5989 12.4088C9.70841 12.3218 9.96053 12.1187 10.2594 11.8357L-3.49116 -2.68739ZM-3.50454 -2.67473C-5.16194 -1.10549 -6.41114 1.08679 -6.7292 3.68828C-7.01136 5.99621 -6.43759 7.77708 -6.2546 8.32571L12.7179 1.99779C12.8528 2.40204 13.3811 4.00436 13.123 6.11538C12.829 8.51996 11.6734 10.497 10.2461 11.8484L-3.50454 -2.67473ZM-6.20084 8.48255C-6.19949 8.4864 -6.19814 8.49023 -6.1968 8.49403C-6.19546 8.49783 -6.19414 8.50159 -6.19282 8.50535L12.6722 1.86373C12.6709 1.85989 12.6695 1.85605 12.6682 1.85226C12.6668 1.84846 12.6655 1.84469 12.6642 1.84094L-6.20084 8.48255ZM-5.92699 9.18104C-5.24704 10.7406 -4.38261 11.9544 -3.58426 12.9142L11.7917 0.124337C11.7746 0.103766 11.8572 0.200538 11.9809 0.391378C12.1143 0.596994 12.2663 0.866649 12.4064 1.18804L-5.92699 9.18104ZM-2.7716 13.7808L-2.76892 13.7834L10.9817 -0.739757L10.979 -0.74229L-2.7716 13.7808ZM-3.48533 13.0307C-2.14072 14.599 -0.555833 16.0099 1.34462 17.1478L11.6189 -0.0114102C11.6564 0.0110252 11.6898 0.0333347 11.7183 0.0539469C11.7466 0.0744775 11.7662 0.0905489 11.7767 0.0995778C11.7986 0.118467 11.7716 0.0985926 11.6981 0.0128942L-3.48533 13.0307ZM1.33418 17.1416C1.93242 17.5008 2.48472 17.7539 2.53198 17.7763L11.0896 -0.30046C11.0192 -0.333771 11.0782 -0.306434 11.1548 -0.267717C11.244 -0.222702 11.415 -0.133818 11.6293 -0.00515157L1.33418 17.1416ZM2.53198 17.7763C2.59878 17.8079 2.552 17.7861 2.49011 17.7553C2.42304 17.7219 2.24233 17.6307 2.00899 17.4936L12.1422 0.250674C11.8313 0.0679556 11.5663 -0.0675224 11.4103 -0.145269C11.2595 -0.22043 11.1191 -0.286498 11.0896 -0.30046L2.53198 17.7763ZM2.7968 17.9105C2.65368 17.8427 2.53015 17.78 2.42998 17.7274C2.3299 17.6749 2.24597 17.6286 2.18318 17.5933C2.15136 17.5754 2.1234 17.5595 2.10015 17.5461C2.07695 17.5327 2.05727 17.5213 2.04229 17.5125C2.02743 17.5039 2.01558 17.4969 2.00872 17.4928C2.0025 17.4892 1.99727 17.4861 1.99892 17.487C1.99901 17.4871 2.00082 17.4882 2.00287 17.4894C2.00509 17.4907 2.00854 17.4927 2.01273 17.4952C2.02093 17.5 2.03412 17.5078 2.05031 17.5173C2.06663 17.5268 2.08765 17.539 2.11219 17.5531C2.13677 17.5673 2.16608 17.584 2.19923 17.6026C2.26469 17.6394 2.3513 17.6872 2.45406 17.7411C2.5569 17.7952 2.6831 17.8592 2.8289 17.9282L11.3865 -0.148499C11.5296 -0.0807462 11.6531 -0.0180592 11.7533 0.0345472C11.8534 0.087108 11.9373 0.13339 12.0001 0.168686C12.0319 0.186572 12.0599 0.202528 12.0831 0.215897C12.1063 0.22924 12.126 0.24069 12.141 0.249443C12.1559 0.258124 12.1677 0.265103 12.1746 0.269153C12.1808 0.272822 12.186 0.27592 12.1844 0.27494C12.1843 0.274888 12.1825 0.273818 12.1804 0.272603C12.1782 0.271292 12.1748 0.269253 12.1706 0.266781C12.1624 0.261942 12.1492 0.254177 12.133 0.244714C12.1167 0.235179 12.0956 0.222952 12.0711 0.208841C12.0465 0.194702 12.0172 0.177985 11.9841 0.159347C11.9186 0.122547 11.832 0.0748004 11.7292 0.0208349C11.6264 -0.0331765 11.5002 -0.0972089 11.3544 -0.166228L2.7968 17.9105ZM2.8289 17.9282C4.09137 18.5259 5.63108 18.9532 7.37252 18.9532V-1.04683C8.93741 -1.04683 10.3059 -0.660045 11.3865 -0.148499L2.8289 17.9282ZM7.37252 18.9532C11.7339 18.9532 14.3601 16.3187 14.6544 16.04L0.903809 1.51686C0.899096 1.52133 0.975092 1.44891 1.07212 1.36168C1.17337 1.27066 1.30552 1.15589 1.46449 1.02817C1.77974 0.7749 2.20719 0.465075 2.74544 0.162796C3.84536 -0.454907 5.42868 -1.04683 7.37252 -1.04683V18.9532ZM14.6544 16.04L15.5693 15.1738L1.81865 0.650686L0.903809 1.51686L14.6544 16.04ZM15.5693 15.1738C15.1928 15.5302 14.5357 16.0926 13.5893 16.5996C12.6342 17.1113 11.0875 17.7223 9.09787 17.7223V-2.27771C4.98523 -2.27771 2.42747 0.0742474 1.81865 0.650686L15.5693 15.1738ZM9.09787 17.7223C7.15744 17.7223 5.5985 17.1408 4.5442 16.5675C3.51449 16.0075 2.77383 15.3565 2.27995 14.8437L16.6862 0.970669C15.7898 0.0398149 13.2127 -2.27771 9.09787 -2.27771V17.7223ZM2.60776 15.1687C2.60862 15.1695 2.60787 15.1688 2.60865 15.1696C2.61033 15.1712 2.60736 15.1683 2.60902 15.1699C2.60918 15.1701 2.6092 15.1701 2.60935 15.1702C2.60978 15.1706 2.61009 15.1709 2.61044 15.1713C2.6121 15.1728 2.61079 15.1716 2.61311 15.1738L16.3637 0.650686C16.3622 0.649278 16.3634 0.650353 16.3621 0.649182C16.3526 0.640173 16.371 0.657618 16.3616 0.648638C16.3608 0.647874 16.3618 0.648908 16.361 0.648153C16.3594 0.646584 16.3607 0.647823 16.3584 0.645621L2.60776 15.1687ZM2.61311 15.1738L4.08702 16.5693L17.8376 2.0462L16.3637 0.650686L2.61311 15.1738ZM4.12246 16.6027C3.11088 15.6542 1.17847 13.3397 1.16933 9.72559C1.16033 6.16334 3.03159 3.87745 3.95141 2.9724L17.9786 17.2286C19.1713 16.055 21.1789 13.502 21.1693 9.67505C21.1595 5.79627 19.0893 3.21961 17.8022 2.0128L4.12246 16.6027Z" fill="white" mask="url(#path-1-inside-1)"/>
<mask id="path-3-inside-2" fill="white">
<path d="M6.84009 2.85448C7.54094 2.96592 8.17758 3.27997 8.68582 3.76118C9.19406 4.24239 9.52309 4.84517 9.64346 5.50873C9.67288 5.67589 9.82536 5.79239 9.99923 5.79239C10.0206 5.79239 10.0394 5.78986 10.0608 5.78733C10.2587 5.75694 10.3898 5.57965 10.3577 5.39223C10.2132 4.58937 9.81198 3.85742 9.19941 3.27744C8.58685 2.69745 7.81378 2.31755 6.96582 2.18079C6.76787 2.15039 6.5833 2.2745 6.54852 2.45938C6.51375 2.64427 6.64215 2.82409 6.84009 2.85448Z"/>
</mask>
<path d="M6.84009 2.85448C7.54094 2.96592 8.17758 3.27997 8.68582 3.76118C9.19406 4.24239 9.52309 4.84517 9.64346 5.50873C9.67288 5.67589 9.82536 5.79239 9.99923 5.79239C10.0206 5.79239 10.0394 5.78986 10.0608 5.78733C10.2587 5.75694 10.3898 5.57965 10.3577 5.39223C10.2132 4.58937 9.81198 3.85742 9.19941 3.27744C8.58685 2.69745 7.81378 2.31755 6.96582 2.18079C6.76787 2.15039 6.5833 2.2745 6.54852 2.45938C6.51375 2.64427 6.64215 2.82409 6.84009 2.85448Z" fill="white"/>
<path d="M6.84009 2.85448L7.15417 0.879265L7.14361 0.877645L6.84009 2.85448ZM9.64346 5.50873L11.6132 5.162L11.6113 5.15175L9.64346 5.50873ZM10.0608 5.78733L10.2958 7.77347L10.3301 7.76941L10.3643 7.76416L10.0608 5.78733ZM10.3577 5.39223L12.329 5.0546L12.3276 5.04634L12.3261 5.03808L10.3577 5.39223ZM6.96582 2.18079L7.28428 0.206303L7.27681 0.205098L7.26934 0.203951L6.96582 2.18079ZM6.52603 4.82967C6.8309 4.87814 7.09708 5.01118 7.31076 5.21349L10.0609 2.30887C9.25808 1.54876 8.25097 1.05369 7.15416 0.879293L6.52603 4.82967ZM7.31076 5.21349C7.51968 5.4113 7.63357 5.63418 7.67558 5.86572L11.6113 5.15175C11.4126 4.05616 10.8684 3.07348 10.0609 2.30887L7.31076 5.21349ZM7.67374 5.85546C7.89001 7.08402 8.96553 7.79239 9.99923 7.79239V3.79239C10.6852 3.79239 11.4558 4.26776 11.6132 5.162L7.67374 5.85546ZM9.99923 7.79239C10.0903 7.79239 10.166 7.78688 10.2185 7.78191C10.2436 7.77953 10.2644 7.77717 10.2764 7.77577C10.2824 7.77507 10.2878 7.77442 10.2907 7.77408C10.2945 7.77362 10.295 7.77357 10.2958 7.77347L9.82569 3.80119C9.82119 3.80172 9.8164 3.8023 9.81499 3.80247C9.81268 3.80274 9.8129 3.80272 9.81386 3.8026C9.81568 3.80239 9.82641 3.80114 9.84148 3.79971C9.87391 3.79664 9.92952 3.79239 9.99923 3.79239V7.79239ZM10.3643 7.76416C11.6005 7.57436 12.561 6.40963 12.329 5.0546L8.38638 5.72986C8.2185 4.74966 8.91695 3.93951 9.75724 3.81049L10.3643 7.76416ZM12.3261 5.03808C12.1032 3.79934 11.485 2.68719 10.5745 1.82513L7.82435 4.72975C8.13899 5.02765 8.32325 5.37939 8.38928 5.74638L12.3261 5.03808ZM10.5745 1.82513C9.66511 0.964132 8.52199 0.405928 7.28428 0.206303L6.64736 4.15527C7.10558 4.22917 7.50858 4.43078 7.82435 4.72975L10.5745 1.82513ZM7.26934 0.203951C6.10429 0.0250728 4.83509 0.749331 4.58299 2.08969L8.51406 2.82907C8.3315 3.79966 7.43146 4.27571 6.6623 4.15762L7.26934 0.203951ZM4.58299 2.08969C4.32888 3.44072 5.2767 4.63788 6.53658 4.83132L7.14361 0.877645C8.0076 1.0103 8.69862 1.84782 8.51406 2.82907L4.58299 2.08969Z" fill="white" mask="url(#path-3-inside-2)"/>
<mask id="path-5-inside-3" fill="white">
<path d="M12.6503 5.29346C12.4122 3.9714 11.7542 2.76837 10.743 1.81102C9.7319 0.853662 8.46129 0.230621 7.06496 0.00521264C6.86969 -0.0277122 6.68511 0.0989219 6.65034 0.283808C6.61824 0.471226 6.74931 0.645982 6.94726 0.678907C8.1938 0.878989 9.33066 1.43871 10.2348 2.29223C11.1389 3.14827 11.7274 4.22466 11.9387 5.40489C11.9682 5.57205 12.1206 5.68855 12.2945 5.68855C12.3159 5.68855 12.3346 5.68602 12.356 5.68349C12.5513 5.65563 12.6851 5.47834 12.6503 5.29346Z"/>
</mask>
<path d="M12.6503 5.29346C12.4122 3.9714 11.7542 2.76837 10.743 1.81102C9.7319 0.853662 8.46129 0.230621 7.06496 0.00521264C6.86969 -0.0277122 6.68511 0.0989219 6.65034 0.283808C6.61824 0.471226 6.74931 0.645982 6.94726 0.678907C8.1938 0.878989 9.33066 1.43871 10.2348 2.29223C11.1389 3.14827 11.7274 4.22466 11.9387 5.40489C11.9682 5.57205 12.1206 5.68855 12.2945 5.68855C12.3159 5.68855 12.3346 5.68602 12.356 5.68349C12.5513 5.65563 12.6851 5.47834 12.6503 5.29346Z" fill="white"/>
<path d="M12.6503 5.29346L10.682 5.64791L10.6833 5.65553L10.6848 5.66315L12.6503 5.29346ZM7.06496 0.00521264L6.73243 1.97742L6.74623 1.97965L7.06496 0.00521264ZM6.65034 0.283808L4.6848 -0.085883L4.68179 -0.0698752L4.67904 -0.0538204L6.65034 0.283808ZM6.94726 0.678907L6.6191 2.65183L6.6303 2.65363L6.94726 0.678907ZM10.2348 2.29223L11.6099 0.839914L11.6077 0.837883L10.2348 2.29223ZM11.9387 5.40489L13.9085 5.05816L13.9074 5.0524L11.9387 5.40489ZM12.356 5.68349L12.5911 7.66963L12.6149 7.66682L12.6385 7.66344L12.356 5.68349ZM14.6186 4.939C14.3022 3.18206 13.4278 1.5987 12.1181 0.358705L9.36798 3.26333C10.0806 3.93804 10.5222 4.76073 10.682 5.64791L14.6186 4.939ZM12.1181 0.358705C10.8096 -0.88017 9.16883 -1.68105 7.38369 -1.96923L6.74623 1.97965C7.75376 2.1423 8.65418 2.58749 9.36798 3.26333L12.1181 0.358705ZM7.39749 -1.96695C6.18053 -2.17214 4.93083 -1.39391 4.6848 -0.085883L8.61587 0.653499C8.4394 1.59175 7.55884 2.11672 6.73243 1.97738L7.39749 -1.96695ZM4.67904 -0.0538204C4.44346 1.32165 5.42608 2.45336 6.61911 2.6518L7.27542 -1.29399C8.07255 -1.1614 8.79302 -0.379198 8.62164 0.621436L4.67904 -0.0538204ZM6.6303 2.65363C7.4843 2.79071 8.25226 3.17107 8.86188 3.74657L11.6077 0.837883C10.4091 -0.293652 8.90329 -1.03273 7.26423 -1.29582L6.6303 2.65363ZM8.85973 3.74454C9.46548 4.31806 9.83688 5.01361 9.97006 5.75739L13.9074 5.0524C13.618 3.43572 12.8124 1.97848 11.6099 0.839915L8.85973 3.74454ZM9.96903 5.75162C10.1853 6.98018 11.2608 7.68855 12.2945 7.68855V3.68856C12.9805 3.68856 13.7511 4.16392 13.9085 5.05817L9.96903 5.75162ZM12.2945 7.68855C12.3856 7.68855 12.4613 7.68304 12.5138 7.67807C12.5389 7.67569 12.5597 7.67333 12.5717 7.67193C12.5777 7.67123 12.5831 7.67059 12.586 7.67024C12.5898 7.66979 12.5903 7.66973 12.5911 7.66963L12.121 3.69735C12.1165 3.69788 12.1117 3.69846 12.1103 3.69863C12.108 3.69891 12.1082 3.69888 12.1092 3.69876C12.111 3.69855 12.1217 3.6973 12.1368 3.69588C12.1692 3.69281 12.2248 3.68856 12.2945 3.68856V7.68855ZM12.6385 7.66344C13.8661 7.48831 14.8786 6.32092 14.6158 4.92377L10.6848 5.66315C10.4915 4.63576 11.2366 3.82295 12.0736 3.70354L12.6385 7.66344Z" fill="white" mask="url(#path-5-inside-3)"/>
</svg>
