<svg width="17" height="15" viewBox="0 0 17 15" fill="none" xmlns="http://www.w3.org/2000/svg">
<g clip-path="url(#clip0)">
<mask id="path-1-inside-1" fill="white">
<path d="M13.4279 1.34766H4.09681C2.30787 1.34766 0.852539 2.72758 0.852539 4.42383V9.17496C0.852539 10.5285 1.78973 11.7073 3.14779 12.0846L4.71464 13.5704C4.80166 13.6528 4.91946 13.6992 5.04245 13.6992C5.16532 13.6992 5.28323 13.6528 5.37013 13.5704L6.80749 12.2074H13.4279C15.2169 12.2074 16.6722 10.8275 16.6722 9.13124V4.42383C16.6722 2.72758 15.2169 1.34766 13.4279 1.34766ZM15.7453 9.13124C15.7453 10.3428 14.7057 11.3285 13.4279 11.3285H6.61558C6.49271 11.3285 6.3748 11.3749 6.2879 11.4573L5.04245 12.6382L3.71602 11.3805C3.65651 11.324 3.58192 11.284 3.50021 11.2648C2.4871 11.0257 1.77947 10.1664 1.77947 9.17496V4.42383C1.77947 3.21224 2.81901 2.22656 4.09681 2.22656H13.4279C14.7057 2.22656 15.7453 3.21224 15.7453 4.42383V9.13124Z"/>
</mask>
<path d="M13.4279 1.34766H4.09681C2.30787 1.34766 0.852539 2.72758 0.852539 4.42383V9.17496C0.852539 10.5285 1.78973 11.7073 3.14779 12.0846L4.71464 13.5704C4.80166 13.6528 4.91946 13.6992 5.04245 13.6992C5.16532 13.6992 5.28323 13.6528 5.37013 13.5704L6.80749 12.2074H13.4279C15.2169 12.2074 16.6722 10.8275 16.6722 9.13124V4.42383C16.6722 2.72758 15.2169 1.34766 13.4279 1.34766ZM15.7453 9.13124C15.7453 10.3428 14.7057 11.3285 13.4279 11.3285H6.61558C6.49271 11.3285 6.3748 11.3749 6.2879 11.4573L5.04245 12.6382L3.71602 11.3805C3.65651 11.324 3.58192 11.284 3.50021 11.2648C2.4871 11.0257 1.77947 10.1664 1.77947 9.17496V4.42383C1.77947 3.21224 2.81901 2.22656 4.09681 2.22656H13.4279C14.7057 2.22656 15.7453 3.21224 15.7453 4.42383V9.13124Z" fill="white"/>
<path d="M3.14779 12.0846L13.4691 1.20017L10.7601 -1.36859L7.16318 -2.36795L3.14779 12.0846ZM4.71464 13.5704L-5.60664 24.4549L-5.59867 24.4624L4.71464 13.5704ZM5.37013 13.5704L15.691 24.4552L15.6915 24.4548L5.37013 13.5704ZM6.80749 12.2074V-2.79259H0.826288L-3.51383 1.323L6.80749 12.2074ZM5.04245 12.6382L-5.27841 23.523L5.04245 33.3091L15.3633 23.523L5.04245 12.6382ZM3.50021 11.2648L0.0552264 25.8638L0.0646005 25.866L3.50021 11.2648ZM13.4279 -13.6523H4.09681V16.3477H13.4279V-13.6523ZM4.09681 -13.6523C-5.21443 -13.6523 -14.1475 -6.29866 -14.1475 4.42383H15.8525C15.8525 11.7538 9.83017 16.3477 4.09681 16.3477V-13.6523ZM-14.1475 4.42383V9.17496H15.8525V4.42383H-14.1475ZM-14.1475 9.17496C-14.1475 17.7399 -8.2497 24.4862 -0.867605 26.5372L7.16318 -2.36795C11.8292 -1.07159 15.8525 3.31704 15.8525 9.17496H-14.1475ZM-7.17349 22.9691L-5.60664 24.4549L15.0359 2.68596L13.4691 1.20017L-7.17349 22.9691ZM-5.59867 24.4624C-2.65341 27.2512 1.18362 28.6992 5.04245 28.6992V-1.30085C8.6553 -1.30085 12.2567 0.0544246 15.028 2.67841L-5.59867 24.4624ZM5.04245 28.6992C8.89718 28.6992 12.7398 27.2536 15.691 24.4552L-4.95073 2.68556C-2.1733 0.0520415 1.43345 -1.30085 5.04245 -1.30085V28.6992ZM15.6915 24.4548L17.1288 23.0918L-3.51383 1.323L-4.95118 2.68599L15.6915 24.4548ZM6.80749 27.2074H13.4279V-2.79259H6.80749V27.2074ZM13.4279 27.2074C22.7392 27.2074 31.6722 19.8537 31.6722 9.13124H1.67221C1.67221 1.80124 7.69458 -2.79259 13.4279 -2.79259V27.2074ZM31.6722 9.13124V4.42383H1.67221V9.13124H31.6722ZM31.6722 4.42383C31.6722 -6.29866 22.7392 -13.6523 13.4279 -13.6523V16.3477C7.69458 16.3477 1.67221 11.7538 1.67221 4.42383H31.6722ZM0.745277 9.13124C0.745277 1.31658 7.18344 -3.67149 13.4279 -3.67149V26.3285C22.228 26.3285 30.7453 19.3691 30.7453 9.13124H0.745277ZM13.4279 -3.67149H6.61558V26.3285H13.4279V-3.67149ZM6.61558 -3.67149C2.76085 -3.67149 -1.08174 -2.2259 -4.03297 0.572409L16.6088 22.3421C13.8313 24.9756 10.2246 26.3285 6.61558 26.3285V-3.67149ZM-4.03297 0.572409L-5.27841 1.75333L15.3633 23.523L16.6088 22.3421L-4.03297 0.572409ZM15.3633 1.75333L14.0369 0.49562L-6.60485 22.2653L-5.27841 23.523L15.3633 1.75333ZM14.0369 0.49562C12.012 -1.42435 9.54749 -2.72198 6.93583 -3.33649L0.0646005 25.866C-2.38364 25.29 -4.69897 24.0724 -6.60485 22.2653L14.0369 0.49562ZM6.9452 -3.33428C12.2177 -2.09011 16.7795 2.7223 16.7795 9.17496H-13.2205C-13.2205 17.6104 -7.24348 24.1415 0.0552271 25.8638L6.9452 -3.33428ZM16.7795 9.17496V4.42383H-13.2205V9.17496H16.7795ZM16.7795 4.42383C16.7795 12.2385 10.3413 17.2266 4.09681 17.2266V-12.7734C-4.70328 -12.7734 -13.2205 -5.81401 -13.2205 4.42383H16.7795ZM4.09681 17.2266H13.4279V-12.7734H4.09681V17.2266ZM13.4279 17.2266C7.18344 17.2266 0.745277 12.2385 0.745277 4.42383H30.7453C30.7453 -5.81401 22.228 -12.7734 13.4279 -12.7734V17.2266ZM0.745277 4.42383V9.13124H30.7453V4.42383H0.745277Z" fill="white" mask="url(#path-1-inside-1)"/>
<path d="M11.7052 5.56137H5.81967C5.56368 5.56137 5.3562 5.75821 5.3562 6.00082C5.3562 6.24355 5.56368 6.44028 5.81967 6.44028H11.7052C11.9612 6.44028 12.1687 6.24355 12.1687 6.00082C12.1687 5.75821 11.9612 5.56137 11.7052 5.56137Z" fill="white"/>
<path d="M11.7052 7.11481H5.81967C5.56368 7.11481 5.3562 7.31153 5.3562 7.55426C5.3562 7.79699 5.56368 7.99371 5.81967 7.99371H11.7052C11.9612 7.99371 12.1687 7.79699 12.1687 7.55426C12.1687 7.31153 11.9612 7.11481 11.7052 7.11481Z" fill="white"/>
</g>
<defs>
<clipPath id="clip0">
<rect width="15.8197" height="15" fill="white" transform="translate(0.852539)"/>
</clipPath>
</defs>
</svg>
