<svg width="320" height="332" viewBox="0 0 320 332" fill="none" xmlns="http://www.w3.org/2000/svg">
<g opacity="0.95">
<path d="M78.7952 153.132C87.5536 156.615 96.8744 158.472 106.3 158.611C136.095 158.956 156.908 141.497 163.008 135.963C163.752 138.09 164.096 140.336 164.022 142.589C163.842 150.902 163.074 159.192 161.724 167.397C160.228 175.577 159.48 179.667 158.944 181.037C154.198 193.247 143.236 199.76 139.716 201.626C117.94 213.152 93.7161 198.84 92.4124 198.042C92.4124 198.042 80.7059 185.623 78.2354 166.36L78.7952 153.132Z" fill="#F5F5F5"/>
<path d="M0.541838 82.3648C3.25117 73.7547 17.9019 39.7056 24.272 34.6178C30.6421 29.53 34.6278 25.225 41.4755 22.3602C48.3232 19.4953 51.8273 27.9332 52.9432 30.9703C54.059 34.0073 59.6304 124.742 59.4698 126.809C59.3093 128.875 52.9432 133.18 40.8373 127.764C28.7314 122.347 10.0989 110.41 4.03422 101.816C-2.03046 93.2213 0.541838 82.3648 0.541838 82.3648Z" fill="#D6D6D6"/>
<path d="M128.115 11.9968C135.762 1.48854 140.061 -1.37628 153.917 2.92095C167.773 7.21817 200.899 49.2511 201.858 50.6679C202.818 52.0846 206.635 56.3975 203.769 69.7706C200.903 83.1436 166.465 122.468 166.465 122.468C166.465 122.468 164.746 97.7926 160.925 85.3744C157.104 72.9563 128.115 11.9968 128.115 11.9968Z" fill="#D6D6D6"/>
<path d="M52.7827 26.634C73.8075 7.06554 82.1469 -4.64811 128.738 10.1574C128.738 10.1574 161.469 81.5625 161.234 87.7696C160.999 93.9767 50.8643 120.011 50.8643 120.011L52.7827 26.634Z" fill="#F4F4F4" stroke="#ECECEC" stroke-width="5" stroke-miterlimit="10"/>
<path d="M53.3543 113.897C55.0261 110.078 59.5678 101.957 84.4138 92.1686C109.26 82.3805 143.177 85.7189 143.177 85.7189C143.177 85.7189 163.963 86.6738 171.128 101.479C178.293 116.285 163.486 134.374 163.486 134.374C163.486 134.374 149.391 150.197 131.232 155.93C113.073 161.664 97.3105 159.989 82.0176 155.93C66.7248 151.872 53.3504 133.004 53.3504 133.004C53.3504 133.004 51.1226 129.341 50.8838 123.611C50.7345 120.201 51.5938 116.822 53.3543 113.897Z" fill="#F5F5F5" stroke="#ECECEC" stroke-width="4" stroke-miterlimit="10"/>
<path d="M85.5141 88.1494C85.5141 88.1494 92.9178 79.7936 123.261 80.9873C123.261 80.9873 125.05 81.8209 125.218 86.6778C125.387 91.5347 120.399 102.399 115.861 104.786C111.323 107.174 108.375 109.483 99.0568 106.54C89.7386 103.597 83.5995 93.7224 85.5141 88.1494Z" fill="#808080"/>
<path d="M166.101 133.728C174.715 149.011 195.728 155.218 195.728 155.218L269.307 153.069C269.307 153.069 289.137 155.934 296.541 165.726C303.945 175.518 310.479 180.692 310.162 212.057C310.139 214.193 309.645 250.019 309.555 256.34C309.555 256.939 309.555 257.275 309.555 257.291C309.328 271.411 309.081 283.45 308.897 283.857C308.259 285.289 293.769 343.083 293.769 343.083C293.769 343.083 264.941 344.198 264.941 343.721C264.941 343.243 254.762 327.956 275.61 322.387L276.887 289.27L257.31 266.347L178.286 260.931C178.286 260.931 179.241 309.648 179.241 311.879C179.241 314.11 173.826 343.838 173.826 343.838H143.569C143.569 343.838 137.599 329.471 150.499 326.845L150.108 267.459L95.6274 273.192L81.7715 185.31C81.7715 185.31 122.384 250.278 158.698 181.005C158.698 181.005 166.34 143.273 162.28 137.783L166.101 133.728Z" fill="#D6D6D6"/>
<path d="M24.6953 202.198L74.7945 152.932" stroke="#999999" stroke-width="10" stroke-miterlimit="10"/>
<path d="M217.821 267.991C217.821 267.991 220.452 270.856 228.095 285.661C235.737 300.467 225.945 323.878 225.945 323.878C224.136 323.897 222.346 324.259 220.671 324.943C215.891 326.9 210.813 332.175 211.831 337.361C212.209 339.084 213.138 340.638 214.477 341.787C217.171 344.1 220.64 343.905 226.642 343.388C232.722 342.868 238.039 342.304 242.428 341.787C246.195 335.251 249.867 327.471 253.359 318.654C258.735 305.132 263.931 287.7 263.214 272.057L256.445 264.805L217.821 267.991Z" fill="#D6D6D6"/>
<path d="M96.3396 280.166V324.348C96.3396 324.348 84.1554 327.213 87.503 341.779H115.571C115.571 341.779 122.141 321.96 123.934 304.048C125.727 286.135 123.934 276.707 123.934 276.707L96.3396 280.166Z" fill="#D6D6D6"/>
<path d="M256.088 107.201C268.75 96.9316 281.412 84.0361 305.303 101.229C329.193 118.422 313.662 150.663 313.662 150.663C313.662 150.663 305.048 164.513 294.552 164.991C284.055 165.468 305.303 181.949 305.303 181.949C305.303 181.949 341.378 180.039 352.368 147.559C363.358 115.079 348.542 91.6795 338.508 81.6487C320.744 63.8884 292.285 62.5539 273.766 71.3792C268.848 73.7274 260.787 77.7116 256.805 86.8226C252.968 95.5971 255.121 104.078 256.088 107.201Z" fill="#CCCCCC"/>
<path d="M50.8721 48.355C53.4209 41.6665 62.6569 30.352 76.8339 34.9819C76.8339 34.9819 83.5994 39.6001 77.707 45.6467C74.375 45.7633 71.1221 46.693 68.2322 48.355C66.8319 49.1128 65.5456 50.064 64.4109 51.1806C63.1994 52.4439 62.1064 53.8155 61.1456 55.2783C61.1456 55.2783 52.9432 56.7146 50.8721 48.9107V48.355Z" fill="#808080"/>
<path d="M111.186 24.3484C117.537 21.0414 131.937 18.7284 139.477 31.5927C139.477 31.5927 141.47 39.5413 133.045 40.148C130.477 38.0209 127.427 36.555 124.161 35.8781C122.612 35.5115 121.018 35.364 119.428 35.4398C117.683 35.5807 115.954 35.8807 114.263 36.336C114.263 36.336 107.181 31.9566 110.818 24.7515L111.186 24.3484Z" fill="#808080"/>
<path d="M78.4156 83.7502C84.5108 83.2856 88.9206 75.9432 88.2652 67.3503C87.6098 58.7575 82.1373 52.1682 76.0422 52.6328C69.947 53.0973 65.5372 60.4397 66.1926 69.0326C66.848 77.6254 72.3204 84.2147 78.4156 83.7502Z" fill="white"/>
<path d="M129.772 74.5102C135.761 73.2867 139.217 65.4503 137.491 57.007C135.764 48.5638 129.51 42.7109 123.521 43.9344C117.532 45.1579 114.076 52.9943 115.802 61.4376C117.528 69.8808 123.783 75.7336 129.772 74.5102Z" fill="white"/>
<path d="M164.029 134.432L254.608 189.056" stroke="#999999" stroke-width="10" stroke-miterlimit="10"/>
<path d="M253.432 176.57L12.9502 199.293L21.246 287.018L261.727 264.295L253.432 176.57Z" fill="#C2C2C2"/>
<path d="M78.807 73.9503C81.2374 73.9503 83.2077 71.9808 83.2077 69.5513C83.2077 67.1218 81.2374 65.1523 78.807 65.1523C76.3765 65.1523 74.4062 67.1218 74.4062 69.5513C74.4062 71.9808 76.3765 73.9503 78.807 73.9503Z" stroke="#808080" stroke-width="10" stroke-miterlimit="10"/>
<path d="M125.618 64.358C128.049 64.358 130.019 62.3885 130.019 59.959C130.019 57.5295 128.049 55.5601 125.618 55.5601C123.188 55.5601 121.218 57.5295 121.218 59.959C121.218 62.3885 123.188 64.358 125.618 64.358Z" stroke="#808080" stroke-width="10" stroke-miterlimit="10"/>
<path d="M109.139 132.973L130.026 130.037" stroke="#999999" stroke-width="7" stroke-miterlimit="10"/>
<path d="M67.288 230.929C67.5406 231.564 67.842 232.034 68.1921 232.338C67.8229 232.855 67.2321 233.152 66.4197 233.228C65.9259 233.275 65.494 233.211 65.124 233.037C64.77 232.861 64.5344 232.578 64.4173 232.187L62.964 228.274L57.5639 228.782L57.0656 231.939C56.9931 232.363 56.9704 232.719 56.9974 233.006C57.0289 233.34 57.1405 233.587 57.3322 233.746C57.04 233.886 56.7688 233.991 56.5184 234.063C56.2854 234.149 55.9937 234.209 55.6433 234.242C55.038 234.299 54.5822 234.237 54.2759 234.057C53.9856 233.876 53.8187 233.554 53.7752 233.092C53.7392 232.71 53.7918 232.158 53.9329 231.438L57.3239 217.017C58.173 216.648 59.0357 216.422 59.9118 216.339C60.8676 216.249 61.4653 216.539 61.705 217.207L67.288 230.929ZM62.3503 226.62L59.251 218.282L57.8343 227.045L62.3503 226.62ZM77.1625 231.88C76.605 231.932 76.1455 231.831 75.784 231.576C75.4384 231.319 75.2431 230.951 75.1981 230.474L74.074 218.792L73.993 217.931C73.882 216.753 73.6974 215.902 73.4394 215.38C74.4309 215.158 76.1931 214.928 78.7259 214.69C81.1472 214.462 83.0698 214.996 84.4936 216.292C85.9318 217.571 86.7799 219.581 87.0379 222.321C87.5749 228.023 85.3902 231.106 80.4839 231.567L77.1625 231.88ZM80.2131 230.484C81.1689 230.394 81.919 230.082 82.4634 229.549C83.0237 229.014 83.3977 228.208 83.5855 227.129C83.7717 226.035 83.7823 224.612 83.6174 222.859C83.3744 220.279 82.8621 218.423 82.0806 217.291C81.3149 216.158 80.2312 215.657 78.8294 215.789L76.9896 215.962L78.3732 230.657L80.2131 230.484ZM102.097 229.871C99.867 230.081 98.1102 229.515 96.8267 228.173C95.5592 226.83 94.7898 224.717 94.5183 221.834C94.2483 218.966 94.6105 216.755 95.6051 215.199C96.6155 213.641 98.2358 212.758 100.466 212.548C102.696 212.338 104.445 212.905 105.712 214.248C106.996 215.589 107.773 217.694 108.043 220.561C108.314 223.445 107.945 225.665 106.934 227.222C105.94 228.778 104.327 229.661 102.097 229.871ZM101.994 228.772C103.141 228.664 103.921 227.988 104.334 226.744C104.745 225.484 104.827 223.532 104.578 220.887C104.329 218.243 103.885 216.348 103.247 215.203C102.607 214.042 101.714 213.515 100.567 213.623C99.4202 213.731 98.633 214.416 98.2054 215.677C97.7937 216.937 97.7116 218.882 97.9591 221.51C98.2066 224.138 98.6501 226.033 99.2898 227.194C99.9454 228.354 100.847 228.88 101.994 228.772ZM99.3859 211.83C99.2858 211.791 99.1638 211.69 99.0199 211.527C98.8918 211.362 98.8248 211.248 98.8188 211.184L101.965 207.73C102.264 207.831 102.615 208.063 103.019 208.427C103.439 208.789 103.729 209.139 103.889 209.478L99.3859 211.83ZM119.365 210.77C121.754 210.545 123.592 210.774 124.877 211.456C126.178 212.121 126.908 213.306 127.068 215.011C127.238 216.811 126.731 218.256 125.548 219.348C124.38 220.422 122.609 221.071 120.235 221.294L119.662 221.348L119.97 224.622C120.083 225.817 120.323 226.75 120.692 227.423C120.533 227.614 120.301 227.797 119.996 227.97C119.707 228.142 119.363 228.247 118.965 228.284C118.439 228.334 117.996 228.231 117.634 227.975C117.273 227.72 117.069 227.346 117.022 226.852L115.893 214.857C115.779 213.646 115.533 212.657 115.155 211.889C116.098 211.318 117.501 210.945 119.365 210.77ZM119.991 220.233C121.44 220.096 122.44 219.624 122.991 218.817C123.558 218.009 123.777 216.927 123.65 215.573C123.395 212.865 122.025 211.628 119.54 211.862C119.174 211.896 118.919 211.928 118.778 211.958L119.561 220.273L119.991 220.233ZM144.985 208.697C145.144 208.682 145.271 208.75 145.366 208.902C145.476 209.052 145.544 209.255 145.568 209.509C145.602 209.876 145.558 210.258 145.434 210.655C145.311 211.052 145.127 211.319 144.883 211.454C143.317 210.862 141.972 210.499 140.851 210.363L142.006 222.38C142.125 223.638 142.371 224.627 142.744 225.348C142.569 225.541 142.329 225.724 142.024 225.897C141.735 226.069 141.391 226.174 140.993 226.211C140.468 226.261 140.024 226.158 139.662 225.903C139.301 225.647 139.097 225.273 139.05 224.779L137.721 210.658C136.706 210.978 135.454 211.586 133.963 212.482C133.714 212.393 133.491 212.164 133.296 211.797C133.101 211.43 132.986 211.063 132.951 210.697C132.927 210.442 132.948 210.231 133.012 210.064C133.077 209.897 133.197 209.806 133.372 209.789L144.985 208.697ZM166.296 221.613C166.549 222.248 166.85 222.718 167.2 223.022C166.831 223.539 166.24 223.836 165.428 223.912C164.934 223.959 164.502 223.895 164.132 223.721C163.778 223.545 163.542 223.262 163.425 222.871L161.972 218.958L156.572 219.466L156.074 222.623C156.001 223.048 155.978 223.403 156.005 223.69C156.037 224.025 156.148 224.271 156.34 224.43C156.048 224.57 155.777 224.676 155.526 224.748C155.293 224.834 155.002 224.893 154.651 224.926C154.046 224.983 153.59 224.922 153.284 224.742C152.994 224.56 152.827 224.238 152.783 223.776C152.747 223.394 152.8 222.843 152.941 222.122L156.332 207.701C157.181 207.332 158.044 207.106 158.92 207.024C159.876 206.934 160.473 207.223 160.713 207.892L166.296 221.613ZM161.358 217.305L158.259 208.966L156.842 217.729L161.358 217.305ZM190.429 217.824C190.543 219.034 190.789 220.024 191.166 220.792C191.008 220.983 190.776 221.166 190.471 221.339C190.166 221.513 189.822 221.617 189.44 221.653C188.946 221.7 188.526 221.594 188.18 221.338C187.835 221.081 187.639 220.706 187.592 220.212L186.45 208.339L183.369 219.91C182.753 220.193 182.206 220.357 181.728 220.402C181.298 220.442 180.893 220.4 180.511 220.275C179.579 218.74 178.612 216.999 177.609 215.052C176.606 213.106 175.686 211.191 174.85 209.31L175.806 219.2C175.938 220.601 176.193 221.694 176.572 222.478C176.341 222.757 175.987 222.919 175.509 222.964C174.808 223.03 174.419 222.649 174.341 221.82L173.171 209.395C173.036 207.962 172.879 206.892 172.7 206.185C172.945 205.889 173.657 205.685 174.836 205.574C175.218 205.538 175.541 205.556 175.805 205.628C176.069 205.699 176.306 205.822 176.515 205.995C179.058 211.155 180.942 214.948 182.166 217.372C183.601 211.789 184.624 207.635 185.235 204.909C185.773 204.65 186.425 204.484 187.189 204.412C187.651 204.369 188.08 204.401 188.476 204.508C188.886 204.598 189.132 204.728 189.212 204.897L190.429 217.824ZM209.203 216.636C209.405 216.729 209.567 216.915 209.689 217.193C209.828 217.469 209.912 217.766 209.942 218.085C209.977 218.451 209.942 218.768 209.839 219.035C209.734 219.286 209.554 219.423 209.299 219.447L201.701 220.162C201.175 220.211 200.731 220.109 200.37 219.853C200.008 219.598 199.804 219.224 199.758 218.73L198.698 207.475C198.584 206.265 198.338 205.276 197.961 204.508C198.313 204.153 198.676 203.91 199.049 203.778C199.437 203.629 199.997 203.52 200.73 203.451L207.659 202.799C207.834 202.783 207.969 202.851 208.064 203.002C208.159 203.154 208.218 203.358 208.242 203.612C208.277 203.979 208.232 204.361 208.109 204.758C207.986 205.155 207.81 205.421 207.581 205.555C205.63 204.967 203.632 204.745 201.588 204.889L202.122 210.552L207.307 210.064C207.413 210.344 207.479 210.611 207.503 210.866C207.531 211.168 207.519 211.467 207.467 211.761L202.305 212.247L202.897 218.531C203.945 218.4 205.095 218.147 206.345 217.772C207.594 217.382 208.547 217.003 209.203 216.636Z" fill="#727272" fill-opacity="0.5"/>
</g>
</svg>
