<svg width="309" height="398" viewBox="0 0 309 398" fill="none" xmlns="http://www.w3.org/2000/svg">
<path d="M26.7392 321.33C26.7392 321.33 -9.07485 314.696 -15.7087 305.413C-15.7087 305.413 -32.9523 298.78 -14.4037 338.574C4.14497 378.368 47.9674 374.388 47.9674 374.388L26.7392 321.33Z" fill="#E6E6E6"/>
<path d="M73.1629 225.825C73.1629 225.825 70.5137 236.435 66.5334 240.415C62.5531 244.395 20.1271 286.843 28.0659 325.311C36.0048 363.778 36.0222 370.412 65.2067 390.309C65.2067 390.309 93.047 400.919 110.304 391.614C127.56 382.309 183.254 388.982 183.254 388.982L237.63 362.447L232.323 231.128L73.1629 225.825Z" fill="white" stroke="#F2F2F2" stroke-width="7" stroke-miterlimit="10"/>
<path d="M72.3277 224.85C54.6825 247.408 40.2345 272.293 29.3926 298.801C30.6411 300.502 45.1573 319.682 64.354 317.202C73.437 316.032 79.4183 310.438 81.9152 308.302C104.766 288.753 100.09 247.558 100.09 247.558C99.5908 244.439 98.5122 241.441 96.9099 238.718C89.7279 226.621 74.6332 225.055 72.3277 224.85Z" fill="#E6E6E6"/>
<path d="M77.1433 63.9941C77.1433 63.9941 94.3869 33.4871 146.122 33.4871C146.122 33.4871 175.302 18.8927 177.956 4.30261C177.956 4.30261 187.243 6.95614 181.936 33.4871C181.936 33.4871 200.507 36.1363 207.14 16.2392C207.14 16.2392 209.79 17.5659 203.16 41.4434C196.531 65.3208 273.461 136.601 273.461 136.601C273.461 136.601 286.729 199.294 233.667 229.805C180.605 260.316 86.4307 232.459 86.4307 232.459C86.4307 232.459 49.2899 210.791 47.2802 178.518C45.2704 146.245 77.1433 63.9941 77.1433 63.9941Z" fill="white" stroke="#F2F2F2" stroke-opacity="0.75" stroke-width="6" stroke-miterlimit="10"/>
<path d="M180.447 226.897C210.455 223.361 233.114 206.34 231.056 188.88C228.999 171.419 203.005 160.131 172.996 163.667C142.988 167.203 120.329 184.224 122.387 201.684C124.444 219.145 150.438 230.433 180.447 226.897Z" fill="#F2F2F2"/>
<path d="M206.475 156.846C229.551 156.846 248.257 138.139 248.257 115.064C248.257 91.9879 229.551 73.2814 206.475 73.2814C183.399 73.2814 164.693 91.9879 164.693 115.064C164.693 138.139 183.399 156.846 206.475 156.846Z" fill="#F2F2F2"/>
<path d="M13.4715 176.743C13.4715 176.743 6.842 121.032 25.4124 98.4813C43.9828 75.9306 57.2461 62.6673 77.1433 63.9941C97.0404 65.3208 86.4306 150.217 86.4306 150.217C86.4306 150.217 77.1433 172.767 58.5903 176.752C40.0373 180.737 13.4715 176.743 13.4715 176.743Z" fill="#E6E6E6"/>
<path d="M205.814 45.4237C205.814 45.4237 236.321 37.4631 253.564 45.4237C270.808 53.3843 307.94 106.442 307.94 106.442C307.94 106.442 314.569 130.319 294.672 132.977C274.775 135.635 249.571 139.607 234.981 132.977C220.391 126.348 205.814 45.4237 205.814 45.4237Z" fill="#E6E6E6"/>
<path d="M160.712 282.863C160.712 282.863 140.815 245.722 116.938 282.863V369.085C114.688 370.956 112.775 373.198 111.282 375.715C104.457 387.355 106.45 406.135 116.381 411.05C117.977 411.842 121.549 413.147 127.534 411.533C127.969 412.216 131.297 417.445 137.974 418.31C144.878 419.18 149.524 414.717 150.059 414.182C150.059 414.182 171.283 416.836 173.936 398.265C176.59 379.695 167.307 370.425 167.307 370.425L160.712 282.863Z" fill="white" stroke="#F2F2F2" stroke-opacity="0.75" stroke-width="6" stroke-miterlimit="10"/>
<path d="M236.325 362.451C239.009 365.022 244.303 370.89 245.612 379.695C246.13 383.175 247.548 392.745 241.632 396.939C237.743 399.701 232.736 398.679 231.018 398.244C230.761 398.961 228.673 404.408 223.061 406.204C217.928 407.844 211.978 405.747 208.471 400.897C200.641 406.504 194.986 405.173 193.877 404.877C183.171 402.011 177.982 383.849 183.633 372.465C185.116 369.546 187.261 367.013 189.897 365.07V278.882C192.254 268.007 202.077 260.321 213.017 260.691C224.353 261.069 233.897 270.013 234.998 281.536C235.439 308.506 235.881 335.478 236.325 362.451Z" fill="white" stroke="#F2F2F2" stroke-opacity="0.75" stroke-width="6" stroke-miterlimit="10"/>
<path d="M179.282 193.987C179.282 193.987 176.629 216.538 160.712 219.191" stroke="#808080" stroke-width="5" stroke-miterlimit="10"/>
<path d="M179.283 193.987C179.283 193.987 191.219 215.211 205.818 212.562" stroke="#808080" stroke-width="5" stroke-miterlimit="10"/>
<path d="M179.211 195.214C187.941 194.185 194.462 188.634 193.777 182.815C193.091 176.995 185.458 173.112 176.728 174.14C167.998 175.169 161.476 180.72 162.162 186.54C162.847 192.359 170.481 196.243 179.211 195.214Z" fill="#666666"/>
<path d="M128.878 156.846C134.738 156.846 139.488 151.502 139.488 144.909C139.488 138.317 134.738 132.973 128.878 132.973C123.019 132.973 118.269 138.317 118.269 144.909C118.269 151.502 123.019 156.846 128.878 156.846Z" fill="#666666"/>
<path d="M200.506 139.602C206.366 139.602 211.116 134.258 211.116 127.666C211.116 121.073 206.366 115.729 200.506 115.729C194.647 115.729 189.897 121.073 189.897 127.666C189.897 134.258 194.647 139.602 200.506 139.602Z" fill="#666666"/>
</svg>
