<svg width="331" height="385" viewBox="0 0 331 385" fill="none" xmlns="http://www.w3.org/2000/svg">
<path d="M101.356 195.69C112.622 200.171 124.611 202.559 136.735 202.738C175.061 203.181 201.833 180.723 209.68 173.605C210.637 176.341 211.079 179.231 210.984 182.128C210.753 192.821 209.765 203.485 208.028 214.04C206.104 224.561 205.142 229.822 204.452 231.584C198.348 247.291 184.247 255.668 179.719 258.069C151.708 272.895 120.549 254.485 118.872 253.458C118.872 253.458 103.813 237.484 100.636 212.706L101.356 195.69Z" fill="#F2F2F2"/>
<path d="M0.696975 104.661C4.18203 93.5856 23.0275 49.7877 31.2215 43.2432C39.4154 36.6987 44.5423 31.1611 53.3506 27.476C62.1589 23.7909 66.6663 34.6448 68.1017 38.5513C69.537 42.4579 76.7035 159.172 76.497 161.83C76.2905 164.488 68.1017 170.025 52.5297 163.058C36.9577 156.091 12.9904 140.736 5.18928 129.681C-2.61182 118.626 0.696975 104.661 0.696975 104.661Z" fill="#CCCCCC"/>
<path d="M164.797 14.1453C174.633 0.628414 180.162 -3.05665 197.986 2.47094C215.809 7.99853 258.42 62.0662 259.654 63.8886C260.888 65.711 265.798 71.2587 262.112 88.4607C258.425 105.663 214.127 156.247 214.127 156.247C214.127 156.247 211.916 124.506 207 108.532C202.085 92.5586 164.797 14.1453 164.797 14.1453Z" fill="#CCCCCC"/>
<path d="M67.8954 32.9735C94.9398 7.80228 105.667 -7.26518 165.598 11.7793C165.598 11.7793 207.701 103.629 207.398 111.613C207.096 119.598 65.4276 153.085 65.4276 153.085L67.8954 32.9735Z" fill="#F2F2F2" stroke="#E6E6E6" stroke-width="4" stroke-miterlimit="10"/>
<path d="M68.6305 145.222C70.781 140.308 76.623 129.862 108.583 117.272C140.543 104.681 184.171 108.975 184.171 108.975C184.171 108.975 210.909 110.204 220.125 129.248C229.341 148.293 210.294 171.561 210.294 171.561C210.294 171.561 192.164 191.914 168.806 199.289C145.448 206.665 125.172 204.51 105.501 199.289C85.8292 194.069 68.6255 169.799 68.6255 169.799C68.6255 169.799 65.7599 165.087 65.4526 157.717C65.2606 153.33 66.3659 148.984 68.6305 145.222V145.222Z" fill="#F2F2F2" stroke="#E6E6E6" stroke-width="4" stroke-miterlimit="10"/>
<path d="M109.998 112.102C109.998 112.102 119.521 101.353 158.552 102.889C158.552 102.889 160.854 103.961 161.07 110.209C161.287 116.456 154.87 130.431 149.034 133.502C143.197 136.573 139.404 139.543 127.418 135.757C115.432 131.972 107.535 119.27 109.998 112.102Z" fill="#808080"/>
<path d="M213.658 170.73C224.738 190.389 251.767 198.373 251.767 198.373L346.413 195.609C346.413 195.609 371.921 199.294 381.445 211.89C390.968 224.486 399.374 231.141 398.966 271.485C398.935 274.234 398.301 320.317 398.185 328.448C398.185 329.218 398.185 329.651 398.185 329.671C397.893 347.835 397.576 363.32 397.339 363.843C396.518 365.686 377.879 440.027 377.879 440.027C377.879 440.027 340.797 441.461 340.797 440.847C340.797 440.233 327.703 420.569 354.521 413.406L356.163 370.806L330.982 341.32L229.331 334.353C229.331 334.353 230.56 397.019 230.56 399.889C230.56 402.758 223.595 440.998 223.595 440.998H184.675C184.675 440.998 176.995 422.517 193.589 419.14L193.085 342.75L123.006 350.125L105.183 237.081C105.183 237.081 157.424 320.65 204.135 231.544C204.135 231.544 213.965 183.009 208.743 175.946L213.658 170.73Z" fill="#CCCCCC"/>
<path d="M31.7656 258.804L96.2089 195.433" stroke="#999999" stroke-width="10" stroke-miterlimit="10"/>
<path d="M280.187 343.435C280.187 343.435 283.571 347.12 293.402 366.164C303.233 385.209 290.637 415.324 290.637 415.324C288.31 415.348 286.008 415.813 283.853 416.693C277.704 419.21 271.172 425.996 272.482 432.666C272.968 434.883 274.163 436.882 275.886 438.36C279.351 441.335 283.813 441.084 291.533 440.419C299.355 439.75 306.194 439.025 311.839 438.36C316.684 429.953 321.408 419.945 325.901 408.603C332.815 391.21 339.498 368.787 338.577 348.665L329.869 339.337L280.187 343.435Z" fill="#CCCCCC"/>
<path d="M123.923 359.096V415.928C123.923 415.928 108.25 419.613 112.556 438.35H148.661C148.661 438.35 157.112 412.857 159.418 389.815C161.725 366.773 159.418 354.646 159.418 354.646L123.923 359.096Z" fill="#CCCCCC"/>
<path d="M329.411 136.608C345.698 123.398 361.985 106.811 392.716 128.926C423.447 151.041 403.468 192.513 403.468 192.513C403.468 192.513 392.389 210.329 378.886 210.944C365.384 211.558 392.716 232.757 392.716 232.757C392.716 232.757 439.12 230.3 453.256 188.521C467.393 146.742 448.336 116.642 435.428 103.74C412.579 80.8943 375.97 79.1776 352.149 90.5298C345.824 93.5504 335.454 98.6752 330.332 110.395C325.397 121.682 328.167 132.591 329.411 136.608Z" fill="#CCCCCC"/>
<path d="M65.4375 60.9134C68.7161 52.3099 80.5965 37.756 98.8326 43.7115C98.8326 43.7115 107.535 49.6519 99.9557 57.4297C95.6697 57.5797 91.4854 58.7757 87.7681 60.9134C85.9669 61.8882 84.3122 63.1118 82.8527 64.5482C81.2944 66.1731 79.8884 67.9374 78.6525 69.819V69.819C78.6525 69.819 68.1017 71.6666 65.4375 61.6283V60.9134Z" fill="#808080"/>
<path d="M143.02 30.0334C151.189 25.7795 169.712 22.8042 179.412 39.3517C179.412 39.3517 181.975 49.5763 171.138 50.3566C167.834 47.6206 163.911 45.7348 159.71 44.8642C157.717 44.3927 155.668 44.2029 153.622 44.3004C151.377 44.4816 149.153 44.8675 146.979 45.4532V45.4532C146.979 45.4532 137.868 39.8199 142.547 30.5519L143.02 30.0334Z" fill="#808080"/>
<path d="M100.867 106.443C108.707 105.845 114.38 96.4006 113.537 85.3475C112.694 74.2943 105.654 65.8184 97.8141 66.416C89.9738 67.0135 84.3014 76.4582 85.1444 87.5113C85.9875 98.5644 93.0268 107.04 100.867 106.443Z" fill="white"/>
<path d="M166.928 94.5573C174.632 92.9835 179.077 82.9034 176.857 72.0427C174.637 61.1819 166.592 53.6534 158.888 55.2271C151.184 56.8009 146.739 66.881 148.959 77.7417C151.179 88.6024 159.225 96.131 166.928 94.5573Z" fill="white"/>
<path d="M210.994 171.636L327.507 241.899" stroke="#999999" stroke-width="10" stroke-miterlimit="10"/>
<path d="M325.994 225.838L16.6583 255.067L27.3293 367.91L336.665 338.681L325.994 225.838Z" fill="#B3B3B3"/>
<path d="M101.371 93.8372C104.497 93.8372 107.032 91.3038 107.032 88.1788C107.032 85.0537 104.497 82.5203 101.371 82.5203C98.2446 82.5203 95.7102 85.0537 95.7102 88.1788C95.7102 91.3038 98.2446 93.8372 101.371 93.8372Z" stroke="#808080" stroke-width="10" stroke-miterlimit="10"/>
<path d="M161.584 81.4984C164.71 81.4984 167.245 78.965 167.245 75.8399C167.245 72.7148 164.71 70.1814 161.584 70.1814C158.458 70.1814 155.923 72.7148 155.923 75.8399C155.923 78.965 158.458 81.4984 161.584 81.4984Z" stroke="#808080" stroke-width="10" stroke-miterlimit="10"/>
<path d="M140.386 169.759L167.255 165.983" stroke="#999999" stroke-width="7" stroke-miterlimit="10"/>
<path d="M93.7435 307.422C93.6629 307.59 93.53 307.715 93.3448 307.797C93.1886 307.844 93.0353 307.922 92.885 308.033C92.7347 308.143 92.5874 308.286 92.4431 308.46C92.2988 308.634 92.1515 308.777 92.0012 308.887C92.6092 310.566 93.1006 312.03 93.4755 313.281C93.8504 314.531 94.0997 315.472 94.2234 316.103C94.3471 316.734 94.4609 317.431 94.5647 318.192C94.6686 318.954 94.7505 319.653 94.8105 320.29C94.8555 320.768 94.8597 321.154 94.8229 321.446C94.8211 321.768 94.7859 322.077 94.7173 322.372C94.29 321.93 93.9234 321.451 93.6175 320.933C93.3435 320.412 93.0536 319.893 92.7477 319.376C92.0531 317.802 91.3669 316.147 90.6892 314.411C90.0433 312.671 89.3944 310.9 88.7425 309.098C87.8475 309.15 86.8902 309.224 85.8707 309.32C84.8512 309.415 83.8317 309.511 82.8122 309.607C81.7927 309.703 80.8225 309.811 79.9016 309.929C79.0095 310.013 78.2305 310.103 77.5644 310.198C77.5187 310.395 77.476 310.624 77.4363 310.885C77.2841 311.317 77.1683 311.794 77.0889 312.315C77.0064 312.805 76.9444 313.341 76.9028 313.924C76.8583 314.474 76.8007 315.058 76.7303 315.676C76.6599 316.293 76.5576 316.913 76.4234 317.537C76.8376 317.498 77.2238 317.333 77.5821 317.042C77.9693 316.716 78.37 316.534 78.7841 316.495C78.5244 316.809 78.2995 317.151 78.1095 317.523C77.9514 317.891 77.8196 318.37 77.7143 318.958C77.6975 319.12 77.6169 319.289 77.4726 319.463C77.3313 319.669 77.2333 319.823 77.1786 319.924C77.1269 320.058 77.0751 320.191 77.0234 320.325C76.9747 320.49 76.9056 320.609 76.816 320.682C76.605 320.83 76.4198 320.912 76.2605 320.927C76.1042 320.974 75.9897 320.952 75.917 320.863C75.6261 320.504 75.4119 320.107 75.2743 319.67C75.1716 319.262 75.0659 318.821 74.9572 318.35C74.8762 317.489 74.8827 316.364 74.9767 314.973C75.0707 313.582 75.2195 312.089 75.4229 310.495C75.162 310.456 74.8967 310.368 74.6268 310.233C74.3539 310.066 74.1189 309.959 73.9218 309.913C73.5563 309.787 73.2621 309.734 73.0391 309.755C72.813 309.745 72.5621 309.64 72.2862 309.441L75.1293 308.402C75.2886 308.387 75.4927 308.335 75.7416 308.248C75.9829 306.714 76.2302 305.245 76.4836 303.839C76.7369 302.433 76.9938 301.236 77.2542 300.247C77.4401 299.49 77.6633 298.617 77.9237 297.629C78.216 296.637 78.5606 295.688 78.9575 294.783C79.3833 293.843 79.8688 293.026 80.4142 292.332C80.9913 291.635 81.6388 291.172 82.3566 290.944C82.5736 290.859 82.7921 290.79 83.0121 290.738C83.2321 290.685 83.4696 290.646 83.7245 290.622C83.9793 290.598 84.1825 290.708 84.3339 290.951C84.4824 291.162 84.7005 291.43 84.9884 291.757C85.1747 292.029 85.3421 292.27 85.4905 292.481C85.6678 292.657 85.8661 293.056 86.0854 293.679C87.069 295.932 88.0063 298.207 88.8973 300.501C89.7854 302.764 90.5818 304.907 91.2865 306.93L94.2601 307.277L93.7435 307.422ZM82.5501 292.999C82.0775 293.783 81.6442 294.643 81.2503 295.58C80.8534 296.485 80.47 297.534 80.1001 298.726C79.7272 299.886 79.3708 301.221 79.031 302.731C78.6881 304.21 78.3472 305.881 78.0085 307.745C79.6472 307.398 81.2933 307.131 82.947 306.943C84.6007 306.755 86.2475 306.665 87.8873 306.671C86.9752 304.153 86.0866 301.714 85.2215 299.353C84.3533 296.959 83.4628 294.841 82.5501 292.999ZM109.234 294.779C109.688 295.154 110.085 295.615 110.425 296.162C110.766 296.708 111.048 297.308 111.27 297.962C111.492 298.616 111.62 299.295 111.655 299.999C111.717 300.668 111.682 301.314 111.548 301.938C111.178 306.89 109.124 311.181 105.384 314.812C104.967 315.172 104.555 315.404 104.147 315.507C103.742 315.641 103.36 315.854 103.002 316.145C102.762 316.328 102.519 316.479 102.273 316.599C102.059 316.716 101.793 316.789 101.474 316.819C101.396 316.666 101.366 316.524 101.386 316.393C101.406 316.263 101.44 316.115 101.489 315.95C101.509 315.819 101.494 315.66 101.444 315.472C101.429 315.312 101.447 315.166 101.499 315.033C101.606 314.798 101.698 314.58 101.775 314.38C101.885 314.177 101.948 313.994 101.965 313.832C101.95 313.672 101.823 313.524 101.585 313.385C101.376 313.212 101.212 313.003 101.092 312.757C100.582 311.776 100.123 310.662 99.7166 309.415C99.3069 308.136 98.926 306.822 98.574 305.473C98.2509 304.089 97.9451 302.719 97.6568 301.364C97.3974 299.975 97.1629 298.679 96.9533 297.477L95.8514 298.063C95.6981 298.142 95.5761 298.041 95.4854 297.76C95.3947 297.479 95.3692 297.209 95.4089 296.948L95.5623 296.017C95.6111 295.852 95.6264 295.674 95.6084 295.483C95.5874 295.259 95.665 295.059 95.8411 294.882C96.1357 294.597 96.5707 294.267 97.146 293.891C97.7532 293.513 98.4566 293.302 99.256 293.259C100.014 292.77 100.834 292.436 101.717 292.256C102.6 292.077 103.482 292.058 104.363 292.2C105.241 292.31 106.103 292.583 106.947 293.017C107.792 293.452 108.554 294.039 109.234 294.779ZM109.464 297.216C108.954 296.236 108.233 295.58 107.302 295.25C106.4 294.885 105.436 294.719 104.411 294.751C103.417 294.78 102.469 294.95 101.566 295.259C100.663 295.569 99.9874 295.906 99.5395 296.27C99.7341 297.312 99.9407 298.482 100.159 299.779C100.41 301.073 100.681 302.414 100.972 303.801C101.292 305.153 101.645 306.518 102.032 307.895C102.451 309.27 102.925 310.543 103.453 311.715C104.588 310.805 105.603 309.809 106.498 308.729C107.39 307.616 108.116 306.455 108.677 305.245C109.235 304.003 109.58 302.718 109.712 301.387C109.873 300.022 109.79 298.632 109.464 297.216ZM123.928 296.771C124.119 296.753 124.389 296.712 124.736 296.647C125.113 296.547 125.509 296.494 125.926 296.487C126.344 296.48 126.735 296.539 127.1 296.666C127.495 296.757 127.807 297.001 128.037 297.397C128.734 297.974 129.345 298.833 129.871 299.973C130.393 301.081 130.747 302.285 130.934 303.585C131.118 304.853 131.093 306.125 130.859 307.401C130.626 308.676 130.099 309.738 129.279 310.587C128.962 310.97 128.559 311.474 128.071 312.099C127.581 312.691 127.09 313.284 126.6 313.876C126.196 314.364 125.77 314.79 125.322 315.154C124.877 315.549 124.356 315.823 123.76 315.976C123.447 316.069 123.186 316.029 122.977 315.856C122.771 315.715 122.482 315.549 122.111 315.359C121.841 315.224 121.525 315.109 121.162 315.015C120.803 314.952 120.516 314.802 120.3 314.565C118.338 312.5 116.867 309.842 115.886 306.592C115.742 306.091 115.665 305.44 115.653 304.637C115.642 303.835 115.707 302.993 115.849 302.112C116.023 301.227 116.294 300.35 116.662 299.48C117.059 298.575 117.564 297.788 118.176 297.12C118.756 296.454 119.539 295.899 120.526 295.452C120.826 295.231 121.153 295.12 121.507 295.119C121.892 295.115 122.28 295.142 122.672 295.202C122.996 295.236 123.266 295.371 123.481 295.608C123.728 295.842 123.877 296.23 123.928 296.771ZM128.478 302.08C128.23 301.493 127.841 300.951 127.313 300.454C126.812 299.923 126.256 299.477 125.644 299.117C125.06 298.722 124.436 298.411 123.772 298.184C123.14 297.954 122.548 297.817 121.998 297.773C121.711 297.8 121.357 297.961 120.935 298.258C120.51 298.523 120.092 298.868 119.682 299.292C119.272 299.716 118.9 300.201 118.565 300.747C118.228 301.261 118.002 301.764 117.888 302.257C117.64 303.373 117.675 304.607 117.996 305.959C118.345 307.277 118.889 308.447 119.628 309.47C120.364 310.461 121.267 311.18 122.338 311.626C123.405 312.039 124.565 311.898 125.817 311.202C126.405 310.954 126.92 310.455 127.364 309.706C127.805 308.926 128.142 308.074 128.377 307.152C128.644 306.227 128.781 305.298 128.79 304.365C128.83 303.429 128.726 302.668 128.478 302.08ZM151.524 291.764C152.13 293.764 152.319 295.771 152.091 297.786C151.86 299.768 151.215 301.628 150.158 303.367C149.821 304.235 149.313 304.813 148.634 305.102C147.954 305.391 147.2 305.574 146.371 305.652C146.18 305.67 145.911 305.711 145.563 305.776C145.213 305.809 144.849 305.876 144.473 305.975C144.126 306.04 143.78 306.121 143.435 306.217C143.12 306.279 142.869 306.351 142.684 306.433L143.199 309.856C143.229 310.174 143.229 310.512 143.198 310.868C143.167 311.225 143.134 311.549 143.097 311.842C143.069 312.23 143.083 312.55 143.139 312.802C143.198 313.086 143.214 313.422 143.186 313.81C143.158 314.199 143.132 314.603 143.107 315.023C143.114 315.44 143.139 315.872 143.181 316.318C142.707 315.72 142.258 314.878 141.834 313.793C141.414 312.74 141.013 311.556 140.632 310.242C140.28 308.893 139.956 307.493 139.658 306.043C139.361 304.592 139.084 303.188 138.828 301.83C138.603 300.469 138.405 299.218 138.233 298.077C138.09 296.901 137.97 295.964 137.872 295.266C137.291 295.578 136.716 295.954 136.146 296.393C135.577 296.832 135.038 297.253 134.529 297.654C134.382 297.797 134.208 297.829 134.008 297.751C133.84 297.671 133.68 297.686 133.53 297.796C133.415 297.936 133.293 298.011 133.166 298.023C133.07 298.032 132.972 298.01 132.87 297.955C132.769 297.9 132.683 297.844 132.613 297.786C132.54 297.697 132.472 297.655 132.409 297.661C132.327 297.476 132.299 297.35 132.325 297.283C132.348 297.184 132.353 297.071 132.341 296.944C132.355 296.75 132.37 296.572 132.387 296.409C132.369 296.218 132.434 296.051 132.581 295.909C134.349 294.2 136.041 292.884 137.657 291.96C139.271 291.005 140.778 290.284 142.179 289.799C143.669 289.241 145.044 288.999 146.305 289.073C147.562 289.116 148.849 289.637 150.164 290.639C150.524 290.701 150.824 290.818 151.065 290.988C151.335 291.123 151.488 291.382 151.524 291.764ZM149.272 292.94C148.877 292.495 148.367 292.206 147.744 292.072C147.121 291.937 146.428 291.922 145.667 292.026C144.905 292.13 144.121 292.332 143.313 292.633C142.535 292.899 141.794 293.226 141.091 293.614C141.145 294.187 141.213 294.904 141.294 295.764C141.372 296.592 141.456 297.485 141.546 298.44C141.665 299.361 141.785 300.298 141.907 301.251C142.058 302.169 142.202 303.023 142.341 303.813C142.804 303.609 143.332 303.415 143.925 303.23C144.548 303.011 145.152 302.778 145.74 302.529C146.356 302.246 146.92 301.92 147.431 301.551C147.975 301.178 148.395 300.689 148.691 300.082C148.843 299.65 149.002 299.121 149.169 298.494C149.363 297.833 149.509 297.161 149.605 296.477C149.699 295.761 149.717 295.1 149.66 294.495C149.632 293.855 149.502 293.336 149.272 292.94ZM176.308 290.155C176.45 290.303 176.435 290.481 176.262 290.69L175.906 291.013C175.747 291.028 175.64 291.086 175.585 291.188C175.559 291.254 175.47 291.327 175.317 291.406C175.102 291.522 174.936 291.634 174.818 291.742C174.728 291.815 174.463 291.904 174.023 292.01C172.989 291.946 171.852 291.989 170.612 292.138C169.37 292.255 168.337 292.384 167.515 292.526C167.841 293.941 168.095 295.444 168.277 297.034C168.459 298.624 168.596 300.25 168.688 301.913C168.809 303.541 168.897 305.156 168.952 306.758C169.038 308.357 169.149 309.873 169.284 311.306L169.36 312.119C169.15 311.592 168.967 311.015 168.811 310.387C168.727 310.17 168.659 309.967 168.609 309.779C168.563 309.623 168.497 309.436 168.412 309.219C167.723 306.68 167.243 303.977 166.974 301.11C166.704 298.243 166.616 295.439 166.712 292.698C164.92 293.123 163.193 293.559 161.531 294.005C159.87 294.45 158.236 295.022 156.631 295.719C156.445 295.801 156.259 295.867 156.071 295.917C155.914 295.963 155.744 296.028 155.558 296.109C155.384 295.965 155.23 295.867 155.097 295.815C154.963 295.764 154.869 295.612 154.813 295.36C154.716 295.015 154.786 294.736 155.023 294.521C155.257 294.274 155.489 294.011 155.72 293.732C155.813 293.691 155.869 293.605 155.889 293.475C155.909 293.344 155.929 293.214 155.948 293.084C156 292.95 156.038 292.834 156.06 292.736C156.08 292.605 156.136 292.519 156.229 292.479C157.739 291.79 159.339 291.206 161.03 290.725C162.72 290.245 164.423 289.892 166.137 289.666C167.883 289.438 169.611 289.355 171.321 289.419C173.062 289.481 174.724 289.726 176.308 290.155ZM200.335 297.393C200.255 297.561 200.122 297.686 199.937 297.768C199.78 297.814 199.627 297.893 199.477 298.004C199.326 298.114 199.179 298.257 199.035 298.431C198.89 298.605 198.743 298.748 198.593 298.858C199.201 300.537 199.692 302.001 200.067 303.251C200.442 304.502 200.691 305.443 200.815 306.074C200.939 306.705 201.053 307.401 201.156 308.163C201.26 308.925 201.342 309.624 201.402 310.261C201.447 310.739 201.451 311.124 201.415 311.417C201.413 311.739 201.378 312.047 201.309 312.343C200.882 311.901 200.515 311.421 200.209 310.904C199.935 310.383 199.645 309.864 199.339 309.346C198.645 307.773 197.959 306.118 197.281 304.381C196.635 302.642 195.986 300.871 195.334 299.068C194.439 299.12 193.482 299.194 192.462 299.29C191.443 299.386 190.423 299.482 189.404 299.578C188.384 299.674 187.414 299.781 186.493 299.9C185.601 299.984 184.822 300.074 184.156 300.168C184.11 300.365 184.068 300.594 184.028 300.855C183.876 301.287 183.76 301.764 183.681 302.286C183.598 302.776 183.536 303.312 183.495 303.895C183.45 304.445 183.392 305.029 183.322 305.647C183.252 306.264 183.149 306.884 183.015 307.507C183.429 307.469 183.816 307.304 184.174 307.013C184.561 306.687 184.962 306.505 185.376 306.466C185.116 306.779 184.891 307.122 184.701 307.493C184.543 307.862 184.411 308.34 184.306 308.929C184.289 309.091 184.209 309.259 184.064 309.434C183.923 309.64 183.825 309.794 183.77 309.895C183.719 310.029 183.667 310.162 183.615 310.296C183.566 310.461 183.497 310.58 183.408 310.653C183.197 310.801 183.012 310.883 182.852 310.898C182.696 310.944 182.581 310.923 182.509 310.834C182.218 310.475 182.004 310.078 181.866 309.64C181.763 309.232 181.658 308.792 181.549 308.32C181.468 307.46 181.474 306.335 181.568 304.944C181.662 303.553 181.811 302.06 182.015 300.466C181.754 300.426 181.488 300.339 181.219 300.204C180.946 300.036 180.711 299.93 180.513 299.884C180.148 299.758 179.854 299.705 179.631 299.726C179.405 299.715 179.154 299.61 178.878 299.411L181.721 298.373C181.88 298.358 182.084 298.306 182.333 298.218C182.575 296.685 182.822 295.216 183.075 293.81C183.329 292.404 183.585 291.206 183.846 290.218C184.032 289.461 184.255 288.588 184.515 287.599C184.808 286.608 185.152 285.659 185.549 284.754C185.975 283.814 186.461 282.997 187.006 282.303C187.583 281.606 188.231 281.143 188.948 280.915C189.165 280.83 189.384 280.761 189.604 280.708C189.824 280.656 190.061 280.617 190.316 280.593C190.571 280.569 190.774 280.679 190.926 280.922C191.074 281.133 191.292 281.401 191.58 281.728C191.766 282 191.934 282.241 192.082 282.452C192.26 282.628 192.458 283.027 192.677 283.649C193.661 285.903 194.598 288.177 195.489 290.472C196.377 292.735 197.173 294.878 197.878 296.901L200.852 297.247L200.335 297.393ZM189.142 282.97C188.669 283.753 188.236 284.614 187.842 285.551C187.445 286.456 187.062 287.504 186.692 288.696C186.319 289.856 185.963 291.192 185.623 292.702C185.28 294.181 184.939 295.852 184.6 297.716C186.239 297.369 187.885 297.102 189.539 296.914C191.192 296.726 192.839 296.635 194.479 296.642C193.567 294.124 192.678 291.685 191.813 289.323C190.945 286.93 190.055 284.812 189.142 282.97ZM227.625 305.094C227.416 304.921 227.269 304.726 227.185 304.509C227.103 304.324 226.95 304.065 226.726 303.732C226.47 303.403 226.34 303.045 226.335 302.66C226.328 302.243 226.237 301.785 226.062 301.288C225.971 301.007 225.815 300.716 225.594 300.416C225.373 300.115 225.25 299.837 225.226 299.582C224.97 297.549 224.722 295.596 224.481 293.722C224.238 291.817 223.928 289.725 223.553 287.446C223.12 287.969 222.663 288.574 222.181 289.262C221.728 289.916 221.295 290.599 220.88 291.313C220.465 292.027 220.082 292.738 219.731 293.446C219.376 294.122 219.083 294.761 218.85 295.361C218.695 295.761 218.486 296.103 218.223 296.384C217.99 296.631 217.754 296.862 217.517 297.078C217.37 297.22 217.255 297.359 217.171 297.496C217.119 297.629 217.011 297.672 216.845 297.623C215.796 297.4 214.832 296.896 213.955 296.111C213.078 295.326 212.23 294.522 211.414 293.698C210.597 292.875 209.773 292.149 208.943 291.52C208.109 290.86 207.227 290.541 206.297 290.564C206.352 291.491 206.432 292.512 206.537 293.627C206.674 294.739 206.814 295.883 206.957 297.059C207.1 298.235 207.243 299.41 207.386 300.586C207.525 301.73 207.674 302.793 207.83 303.774L208.051 306.116C207.661 305.735 207.387 305.375 207.226 305.037C207.063 304.666 206.863 304.251 206.627 303.791C206.475 303.548 206.272 303.262 206.016 302.933C205.757 302.571 205.582 302.25 205.491 301.97C205.061 300.821 204.717 299.552 204.457 298.162C204.195 296.74 203.999 295.344 203.87 293.974C203.738 292.573 203.646 291.247 203.592 289.999C203.539 288.75 203.505 287.709 203.491 286.875C203.508 286.712 203.544 286.58 203.598 286.479C203.682 286.342 203.803 286.267 203.963 286.252C204.09 286.24 204.183 286.199 204.24 286.129C204.298 286.059 204.389 286.003 204.514 285.959C204.737 285.938 204.892 286.052 204.98 286.301C205.099 286.547 205.308 286.88 205.604 287.303C205.797 287.638 205.913 287.852 205.954 287.945C205.995 288.037 206.061 288.224 206.152 288.505C207.05 288.484 207.937 288.69 208.813 289.122C209.721 289.551 210.56 290.099 211.33 290.765C212.132 291.429 212.857 292.132 213.506 292.875C214.186 293.614 214.744 294.253 215.181 294.79C215.667 293.813 216.203 292.846 216.788 291.891C217.405 290.933 218.042 290.021 218.7 289.156C219.355 288.259 220.001 287.443 220.639 286.708C221.306 285.938 221.9 285.255 222.423 284.659L223.008 284.219C222.996 284.091 223.139 283.901 223.436 283.648C223.494 283.578 223.455 283.502 223.318 283.418C223.214 283.332 223.192 283.269 223.253 283.231C223.377 283.188 223.504 283.176 223.635 283.195C223.762 283.183 223.862 283.222 223.935 283.312C224.555 284.089 225.048 284.895 225.416 285.728C225.781 286.529 226.085 287.368 226.328 288.245C226.651 290.304 226.921 292.32 227.139 294.292C227.388 296.261 227.554 298.19 227.635 300.079C227.653 300.945 227.668 301.795 227.683 302.63C227.697 303.464 227.678 304.285 227.625 305.094ZM247.321 289.838C247.645 289.872 247.874 289.914 248.008 289.966C248.17 289.983 248.275 290.07 248.322 290.226L247.617 291.449C247.441 291.626 247.198 291.778 246.889 291.903C246.611 292.026 246.348 292.131 246.099 292.219C245.372 292.351 244.564 292.476 243.675 292.592C242.786 292.707 241.866 292.842 240.917 292.996C239.964 293.117 238.995 293.241 238.011 293.366C237.058 293.487 236.153 293.605 235.296 293.717C235.422 295.055 235.539 296.298 235.647 297.445C235.786 298.589 235.921 299.508 236.051 300.203C236.835 300.001 237.74 299.707 238.764 299.321C239.789 298.935 240.888 298.495 242.063 297.998C243.237 297.502 244.457 296.97 245.721 296.401C246.985 295.832 248.216 295.25 249.414 294.655C249.845 294.454 250.247 294.287 250.62 294.156C251.022 293.989 251.425 293.823 251.827 293.657C251.839 293.784 251.832 293.881 251.806 293.948C251.777 293.983 251.734 294.035 251.676 294.105C251.604 294.369 251.482 294.605 251.309 294.814C251.133 294.991 250.955 295.153 250.776 295.298C250.629 295.441 250.496 295.566 250.377 295.673C250.23 295.816 250.105 296.02 250.001 296.287C249.93 296.551 249.729 296.811 249.4 297.067C247.449 298.536 245.461 299.784 243.436 300.81C241.412 301.836 239.252 302.795 236.957 303.686C236.431 303.896 236.002 303.952 235.672 303.855C235.344 303.789 235.046 303.528 234.778 303.071C234.69 302.822 234.591 302.623 234.481 302.472C234.37 302.322 234.128 302.136 233.753 301.914C233.582 301.801 233.483 301.602 233.456 301.315C233.426 300.997 233.378 300.664 233.313 300.316C233.178 299.557 233.043 298.638 232.909 297.558C232.804 296.443 232.709 295.262 232.624 294.017L231.381 294.134C231.092 294.129 230.882 294.117 230.751 294.097C230.618 294.045 230.412 293.904 230.133 293.673C230.112 293.45 230.146 293.302 230.236 293.229C230.357 293.154 230.459 293.047 230.543 292.911C230.627 292.775 230.693 292.624 230.742 292.458C230.822 292.29 230.939 292.167 231.092 292.088C231.249 292.041 231.437 291.991 231.657 291.938C231.909 291.883 232.191 291.808 232.504 291.714C232.456 290.529 232.393 289.346 232.314 288.164C232.267 286.98 232.227 285.874 232.195 284.849L231.526 284.912C231.143 284.948 230.869 284.941 230.704 284.893C230.568 284.809 230.465 284.738 230.395 284.681C230.322 284.591 230.267 284.516 230.229 284.455C230.188 284.363 230.087 284.308 229.924 284.291C229.666 284.283 229.534 284.247 229.528 284.184C229.522 284.12 229.453 284.062 229.319 284.011C229.183 283.927 229.22 283.811 229.431 283.663C229.674 283.511 229.905 283.232 230.124 282.826C230.326 282.582 230.437 282.395 230.457 282.264C230.508 282.131 230.702 281.968 231.037 281.776C231.341 281.587 231.937 281.434 232.826 281.318C233.715 281.202 234.72 281.124 235.842 281.083C236.96 281.01 238.098 280.983 239.257 281.002C240.445 280.987 241.46 281.02 242.304 281.101C242.826 281.181 243.302 281.297 243.735 281.449C244.164 281.569 244.583 281.755 244.992 282.006C245.001 282.101 244.928 282.172 244.771 282.219C244.644 282.231 244.551 282.272 244.494 282.342C244.375 282.449 244.255 282.541 244.134 282.617C244.009 282.661 243.902 282.719 243.813 282.792C243.691 282.867 243.568 282.927 243.444 282.971C242.949 283.178 242.421 283.372 241.86 283.554C241.327 283.7 240.713 283.838 240.018 283.968C239.355 284.095 238.563 284.218 237.642 284.336C236.75 284.42 235.715 284.518 234.536 284.629C234.591 285.555 234.655 286.578 234.729 287.696C234.834 288.811 234.942 289.958 235.053 291.137C236.567 290.834 238.243 290.547 240.082 290.278C241.95 289.974 243.695 289.729 245.317 289.544C245.667 289.511 246.009 289.56 246.343 289.689C246.676 289.818 247.002 289.868 247.321 289.838Z" fill="#727272"/>
</svg>
