<svg width="22" height="14" viewBox="0 0 22 14" fill="none" xmlns="http://www.w3.org/2000/svg">
<path d="M19.9818 5.60216C17.7378 2.67676 14.4814 1 11.0462 1C11.0433 1 11.0404 1 11.0404 1C7.60225 1.00324 4.34583 2.68324 2.1047 5.61189L1 7.05513L2.00663 8.37189C4.24776 11.3135 7.50995 13 10.9567 13C10.9654 13 10.9769 13 10.9856 13C14.441 12.9903 17.709 11.2876 19.9472 8.32649L21 6.93189L19.9818 5.60216ZM6.212 7C6.212 4.02919 8.36083 1.61622 11.0029 1.61622C13.6449 1.61622 15.7909 4.03243 15.7909 7C15.7909 9.96757 13.6421 12.387 11 12.387C8.35795 12.387 6.212 9.97081 6.212 7ZM2.40756 7.9827L1.70089 7.05838L2.50562 6.00757C3.96222 4.10378 5.86876 2.75459 7.97145 2.08324C6.58696 3.16649 5.67551 4.96324 5.67551 7C5.67551 9.0627 6.60715 10.8854 8.02336 11.9622C5.86299 11.307 3.89876 9.93513 2.40756 7.9827ZM19.5405 7.9373C18.0753 9.87351 16.1514 11.2486 14.0228 11.9232C15.4102 10.8432 16.3245 9.04 16.3245 7C16.3245 4.9373 15.39 3.11459 13.9738 2.03784C16.1312 2.68973 18.0897 4.05514 19.578 5.99459L20.2991 6.93514L19.5405 7.9373Z" stroke="#7C7C7C" stroke-opacity="0.5"/>
<path d="M11 4C9.3442 4 8 5.34725 8 7C8 8.6558 9.34725 10 11 10C12.6558 10 14 8.65275 14 7C14 5.3442 12.6558 4 11 4ZM11 9.43483C9.6558 9.43483 8.56517 8.34114 8.56517 7C8.56517 5.65886 9.65886 4.56517 11 4.56517C12.3411 4.56517 13.4348 5.6558 13.4348 7C13.4348 8.3442 12.3442 9.43483 11 9.43483Z" stroke="#BEBEBE"/>
</svg>
