<svg width="25" height="25" viewBox="0 0 25 25" fill="none" xmlns="http://www.w3.org/2000/svg">
<path d="M20.3125 25.0004H16.1458C15.8583 25.0004 15.625 24.7671 15.625 24.4796V17.1879C15.625 16.9004 15.3917 16.6671 15.1042 16.6671H9.89583C9.60833 16.6671 9.375 16.9004 9.375 17.1879V24.4796C9.375 24.7671 9.14167 25.0004 8.85417 25.0004H4.6875C3.82604 25.0004 3.125 24.2994 3.125 23.4379V13.5421H1.04167C0.467708 13.5421 0 13.0744 0 12.5005C0 12.2244 0.1125 11.9536 0.308333 11.7577L12.1354 0.149414C12.3375 -0.0485026 12.6625 -0.0485026 12.8646 0.149414L24.6875 11.7536C24.8875 11.9536 25 12.2244 25 12.5005C25 13.0744 24.5323 13.5421 23.9583 13.5421H21.875V23.4379C21.875 24.2994 21.174 25.0004 20.3125 25.0004ZM16.6667 23.9588H20.3125C20.6 23.9588 20.8333 23.7254 20.8333 23.4379V13.0213C20.8333 12.7338 21.0667 12.5005 21.3542 12.5005H23.9583L12.5 1.2515L1.04167 12.4973L3.64583 12.5005C3.93333 12.5005 4.16667 12.7338 4.16667 13.0213V23.4379C4.16667 23.7254 4.4 23.9588 4.6875 23.9588H8.33333V17.1879C8.33333 16.3265 9.03437 15.6254 9.89583 15.6254H15.1042C15.9656 15.6254 16.6667 16.3265 16.6667 17.1879V23.9588Z" fill="#F9F9F9" stroke="#F6FBF5" stroke-width="2"/>
</svg>
