<svg width="25" height="25" viewBox="0 0 25 25" fill="none" xmlns="http://www.w3.org/2000/svg">
<g clip-path="url(#clip0)">
<path d="M3.57144 8.92847C1.59898 8.92847 0 10.5274 0 12.4999C0 14.4723 1.59898 16.0713 3.57144 16.0713C5.54391 16.0713 7.14289 14.4723 7.14289 12.4999C7.14289 10.5274 5.54385 8.92847 3.57144 8.92847ZM3.57144 14.2856C2.58524 14.2856 1.78575 13.4861 1.78575 12.4999C1.78575 11.5137 2.58524 10.7142 3.57144 10.7142C4.55765 10.7142 5.35714 11.5137 5.35714 12.4999C5.35714 13.4861 4.55765 14.2856 3.57144 14.2856Z" fill="white"/>
<path d="M12.5 8.92847C10.5275 8.92847 8.92856 10.5274 8.92856 12.4999C8.92856 14.4724 10.5275 16.0714 12.5 16.0714C14.4725 16.0714 16.0714 14.4724 16.0714 12.4999C16.0714 10.5274 14.4725 8.92847 12.5 8.92847ZM12.5 14.2856C11.5138 14.2856 10.7143 13.4861 10.7143 12.4999C10.7143 11.5137 11.5138 10.7142 12.5 10.7142C13.4862 10.7142 14.2857 11.5137 14.2857 12.4999C14.2858 13.4861 13.4863 14.2856 12.5 14.2856Z" fill="white"/>
<path d="M21.4286 8.92847C19.4561 8.92847 17.8571 10.5274 17.8571 12.4999C17.8571 14.4724 19.4561 16.0713 21.4286 16.0713C23.401 16.0713 25 14.4723 25 12.4999C25 10.5274 23.401 8.92847 21.4286 8.92847ZM21.4286 14.2856C20.4424 14.2856 19.6429 13.4861 19.6429 12.4999C19.6429 11.5137 20.4424 10.7142 21.4286 10.7142C22.4148 10.7142 23.2143 11.5137 23.2143 12.4999C23.2143 13.4861 22.4148 14.2856 21.4286 14.2856Z" fill="#F9F9F9"/>
</g>
<defs>
<clipPath id="clip0">
<rect width="25" height="25" fill="white"/>
</clipPath>
</defs>
</svg>
