<svg width="92" height="92" viewBox="0 0 92 92" fill="none" xmlns="http://www.w3.org/2000/svg">
<path d="M72.6836 71.6724C71.8599 73.1077 70.811 74.416 69.5728 75.5525V86.4191C69.3909 88.4489 68.1178 89.9383 66.6722 90.1178C66.3978 90.1517 65.6976 90.1915 64.824 89.6791C64.4277 90.4537 63.6066 90.9223 62.7697 90.8635C61.8236 90.7967 61.2979 90.0899 61.2222 89.9902C60.727 90.8376 60.2193 90.9612 60.0426 90.9871C59.0166 91.1446 57.6246 89.8237 56.9644 87.5048C56.9097 82.7946 56.8554 78.0847 56.8015 73.3751L72.6836 71.6724Z" stroke="#F2F2F2" stroke-miterlimit="10"/>
<path d="M56.3721 78.91L27.2872 78.7573L27.1226 87.4501C27.1036 88.2755 26.5803 88.9991 25.808 89.2801C24.9165 89.6042 24.1083 89.1822 24.0007 89.1274C23.8398 89.4463 23.5843 89.7161 23.2641 89.9051C22.9439 90.094 22.5723 90.1944 22.1929 90.1944C21.8134 90.1944 21.4418 90.094 21.1216 89.9051C20.8014 89.7161 20.5459 89.4463 20.385 89.1274C20.0991 89.3947 19.4059 89.9655 18.5777 89.8901C17.6978 89.8098 17.1333 89.0422 16.7704 88.5193C13.6305 83.9751 12.7274 79.6953 12.7274 79.6953C12.4305 78.4851 12.2438 77.2539 12.1693 76.0147C11.8401 70.8252 20.0569 64.4246 20.0569 64.4246H39.7749L56.3721 72.8099V78.91Z" stroke="#F2F2F2" stroke-miterlimit="10"/>
<path d="M32.1982 43.7791C32.1982 43.7791 17.4603 43.7791 12.5481 49.64C12.5481 49.64 5.99768 50.257 3.70452 39.4602C3.70452 39.4602 -4.48293 44.7041 7.63475 59.5117C7.63475 59.5117 7.30775 66.6066 12.22 77.7123C12.22 77.7123 15.4952 68.4575 26.6309 66.2986C37.7665 64.1396 52.5043 73.7024 52.5043 73.7024C52.5043 73.7024 65.6009 78.0213 72.8063 71.5464C72.8063 71.5464 77.7186 66.6105 77.3905 58.5897C77.0625 50.5689 32.1982 43.7791 32.1982 43.7791Z" fill="#D7D7D7" stroke="#D2D2D2" stroke-miterlimit="10"/>
<path d="M83.5687 22.5489C83.5687 22.5489 90.2138 20.4205 91.5428 14.9463C92.8718 9.47207 90.8804 7.64732 90.8804 7.64732C90.8804 7.64732 87.2261 4.91362 82.5746 5.82257C77.923 6.73153 74.9321 8.55628 73.2714 11.6014C71.6106 14.6466 83.5687 22.5489 83.5687 22.5489Z" fill="#CCCCCC" fill-opacity="0.75"/>
<path d="M58.9473 10.0411C58.9473 10.0411 57.916 3.52854 52.3259 1.26191C46.7359 -1.00471 44.4189 0.47378 44.4189 0.47378C44.4189 0.47378 40.8152 3.30707 40.9212 7.75652C41.0272 12.206 42.4157 15.3016 45.3495 17.4106C48.2834 19.5196 58.9473 10.0411 58.9473 10.0411Z" fill="#CCCCCC" fill-opacity="0.75"/>
<path d="M83.0569 20.1326C83.0569 20.1326 87.7366 18.6125 88.6732 14.7039C89.6097 10.7953 88.2049 9.48916 88.2049 9.48916C88.2049 9.48916 85.6309 7.53436 82.354 8.18596C79.0771 8.83756 76.9714 10.1417 75.8001 12.3144C74.6289 14.487 83.0569 20.1326 83.0569 20.1326Z" fill="white"/>
<path d="M56.3721 10.4731C56.3721 10.4731 55.6593 6.03364 51.7985 4.48522C47.9377 2.93681 46.339 3.94835 46.339 3.94835C46.339 3.94835 43.8524 5.87956 43.9255 8.91228C43.9986 11.945 44.9556 14.0561 46.9838 15.4945C49.0121 16.9328 56.3721 10.4731 56.3721 10.4731Z" fill="white"/>
<path d="M87.3224 43.1933C91.1258 26.9613 81.0948 12.3722 68.1919 9.71369C57.8 7.57092 46.4002 13.3001 40.8237 21.385C36.4042 27.7946 36.2073 34.9003 36.2073 34.9003C36.2073 35.1301 36.1999 35.3648 36.1988 35.6014C36.1988 35.8854 36.1988 36.1635 36.2073 36.4367L55.9972 48.7213L87.3224 43.1933Z" fill="#D7D7D7"/>
<path d="M59.9094 40.5342C61.1382 30.8386 58.9218 23.1022 54.3525 21.3958C53.1635 20.9518 51.0697 20.6387 49.1269 21.3958C46.3526 22.4779 45.237 25.2189 43.9013 28.496C42.8187 31.168 42.1585 33.9761 41.9417 36.83C41.4699 36.7537 36.2642 35.9748 33.882 38.9556C33.0055 40.0526 32.8545 41.2249 32.7979 41.7689C32.1447 47.9426 40.9624 53.8071 40.9624 53.8071C47.2459 56.7721 62.2391 62.8566 76.2342 58.4379C79.2748 57.4766 87.0451 55.024 88.319 49.7947C88.4762 49.1476 89.1315 46.4572 87.3386 44.5426C85.3916 42.4676 82.0963 42.9502 81.7817 42.9997C82.9979 33.5152 80.8381 25.9225 76.2248 24.1715C75.1871 23.7857 74.0568 23.6787 72.9588 23.8623C68.1735 24.7036 64.5343 31.3936 63.814 40.5312L59.9094 40.5342Z" fill="white" stroke="#F2F2F2" stroke-miterlimit="10"/>
<path d="M73.7568 39.8627C72.2158 39.8627 70.9667 38.6909 70.9667 37.2454C70.9667 35.8 72.2158 34.6282 73.7568 34.6282C75.2977 34.6282 76.5469 35.8 76.5469 37.2454C76.5469 38.6909 75.2977 39.8627 73.7568 39.8627Z" fill="#ABABAB"/>
<path d="M51.0068 37.0441C49.4658 37.0441 48.2167 35.8723 48.2167 34.4268C48.2167 32.9814 49.4658 31.8096 51.0068 31.8096C52.5477 31.8096 53.7969 32.9814 53.7969 34.4268C53.7969 35.8723 52.5477 37.0441 51.0068 37.0441Z" fill="#ABABAB"/>
<path d="M61.0941 45.0969C61.0941 45.0969 61.953 51.9417 67.1035 52.7474" stroke="#C8C8C8" stroke-miterlimit="10"/>
<path d="M61.0938 45.0969C61.0938 45.0969 57.4244 51.4611 52.9381 50.6652" stroke="#C8C8C8" stroke-miterlimit="10"/>
<path d="M66.2451 41.7751C66.2451 41.7751 62.1979 36.9916 56.8017 41.1772C56.8307 41.5747 56.9304 41.9657 57.0973 42.3356C57.7707 43.8165 59.7586 45.3464 62.1979 45.0633C64.149 44.8377 65.7731 43.5257 66.2451 41.7751Z" fill="#ABABAB"/>
</svg>
