<svg width="184" height="238" viewBox="0 0 184 238" fill="none" xmlns="http://www.w3.org/2000/svg">
<path d="M27.7334 180.767C27.7334 180.767 7.76433 177.068 4.06546 171.892C4.06546 171.892 -5.54916 168.193 4.79311 190.382C15.1354 212.57 39.5697 210.351 39.5697 210.351L27.7334 180.767Z" fill="#D1D1D1"/>
<path d="M53.6182 127.515C53.6182 127.515 52.1411 133.431 49.9218 135.65C47.7024 137.87 24.0467 161.538 28.4732 182.986C32.8997 204.435 32.9094 208.134 49.182 219.228C49.182 219.228 64.7051 225.144 74.327 219.955C83.9489 214.767 115.002 218.488 115.002 218.488L145.321 203.693L142.362 130.472L53.6182 127.515Z" fill="white" stroke="#EFEFEF" stroke-width="5" stroke-miterlimit="10"/>
<path d="M53.1524 126.972C43.3139 139.55 35.258 153.425 29.2129 168.205C29.909 169.154 38.0029 179.848 48.7065 178.465C53.7709 177.813 57.106 174.694 58.4982 173.503C71.2393 162.603 68.6319 139.633 68.6319 139.633C68.3537 137.894 67.7523 136.222 66.8589 134.705C62.8544 127.959 54.4379 127.086 53.1524 126.972Z" fill="#D1D1D1"/>
<path d="M55.8376 37.2825C55.8376 37.2825 65.4522 20.2726 94.2985 20.2726C94.2985 20.2726 110.569 12.1351 112.048 4C112.048 4 117.227 5.47954 114.268 20.2726C114.268 20.2726 124.622 21.7497 128.321 10.6555C128.321 10.6555 129.798 11.3953 126.101 24.7088C122.405 38.0223 165.3 77.7663 165.3 77.7663C165.3 77.7663 172.697 112.722 143.111 129.735C113.525 146.747 61.016 131.214 61.016 131.214C61.016 131.214 40.3072 119.133 39.1866 101.138C38.066 83.1436 55.8376 37.2825 55.8376 37.2825Z" fill="white" stroke="#EFEFEF" stroke-width="5" stroke-miterlimit="10"/>
<path d="M113.437 128.113C130.169 126.142 142.803 116.651 141.656 106.916C140.508 97.1802 126.015 90.8861 109.283 92.8576C92.551 94.8291 79.917 104.319 81.0641 114.055C82.2112 123.791 96.705 130.085 113.437 128.113Z" fill="#EBEBEB"/>
<path d="M127.95 89.0545C140.816 89.0545 151.246 78.6242 151.246 65.7577C151.246 52.8913 140.816 42.4609 127.95 42.4609C115.083 42.4609 104.653 52.8913 104.653 65.7577C104.653 78.6242 115.083 89.0545 127.95 89.0545Z" fill="#EBEBEB"/>
<path d="M20.3356 100.149C20.3356 100.149 16.6391 69.0854 26.9935 56.5117C37.3479 43.938 44.7432 36.5427 55.8374 37.2824C66.9316 38.0222 61.0158 85.358 61.0158 85.358C61.0158 85.358 55.8374 97.9317 45.4927 100.153C35.148 102.375 20.3356 100.149 20.3356 100.149Z" fill="#D1D1D1"/>
<path d="M126.466 26.9281C126.466 26.9281 143.476 22.4894 153.09 26.9281C162.705 31.3667 183.409 60.9503 183.409 60.9503C183.409 60.9503 187.105 74.2638 176.011 75.7458C164.917 77.2278 150.864 79.4422 142.729 75.7458C134.594 72.0494 126.466 26.9281 126.466 26.9281Z" fill="#D1D1D1"/>
<path d="M102.433 159.318C102.433 159.318 91.3393 138.61 78.0258 159.318V207.394C76.7712 208.437 75.7047 209.687 74.8726 211.09C71.067 217.581 72.1779 228.052 77.7153 230.793C78.6055 231.234 80.5968 231.962 83.9342 231.062C84.1768 231.443 86.0323 234.358 89.7554 234.841C93.6047 235.326 96.1951 232.837 96.4934 232.539C96.4934 232.539 108.327 234.019 109.807 223.664C111.286 213.31 106.11 208.141 106.11 208.141L102.433 159.318Z" fill="white" stroke="#EFEFEF" stroke-width="5" stroke-miterlimit="10"/>
<path d="M144.593 203.695C146.09 205.128 149.042 208.4 149.772 213.31C150.06 215.25 150.851 220.586 147.552 222.924C145.384 224.464 142.592 223.894 141.634 223.652C141.491 224.052 140.327 227.089 137.198 228.091C134.336 229.005 131.018 227.836 129.063 225.131C124.697 228.258 121.544 227.516 120.925 227.351C114.956 225.752 112.063 215.626 115.213 209.278C116.04 207.651 117.236 206.239 118.706 205.155V157.099C120.021 151.035 125.497 146.749 131.597 146.956C137.918 147.167 143.24 152.153 143.853 158.579C144.099 173.617 144.346 188.655 144.593 203.695Z" fill="white" stroke="#EFEFEF" stroke-width="5" stroke-miterlimit="10"/>
<path d="M112.788 109.763C112.788 109.763 111.308 122.337 102.433 123.817" stroke="#808080" stroke-width="5" stroke-miterlimit="10"/>
<path d="M112.788 109.763C112.788 109.763 119.443 121.597 127.583 120.12" stroke="#808080" stroke-width="5" stroke-miterlimit="10"/>
<path d="M112.748 110.448C117.616 109.874 121.252 106.779 120.87 103.534C120.487 100.289 116.231 98.1238 111.363 98.6973C106.496 99.2709 102.859 102.366 103.242 105.611C103.624 108.856 107.88 111.021 112.748 110.448Z" fill="#7C7C7C"/>
<path d="M84.6837 89.0545C87.9509 89.0545 90.5995 86.0747 90.5995 82.3989C90.5995 78.7232 87.9509 75.7434 84.6837 75.7434C81.4166 75.7434 78.768 78.7232 78.768 82.3989C78.768 86.0747 81.4166 89.0545 84.6837 89.0545Z" fill="#7C7C7C"/>
<path d="M124.622 79.4397C127.889 79.4397 130.538 76.4599 130.538 72.7842C130.538 69.1084 127.889 66.1287 124.622 66.1287C121.355 66.1287 118.706 69.1084 118.706 72.7842C118.706 76.4599 121.355 79.4397 124.622 79.4397Z" fill="#7C7C7C"/>
</svg>
