<svg width="14" height="13" viewBox="0 0 14 13" fill="none" xmlns="http://www.w3.org/2000/svg">
<path d="M1.50876 12.2765C1.47145 12.2765 1.43401 12.2722 1.39669 12.2623C1.16644 12.2066 1 12.0021 1 11.7567V10.6987C1 6.90676 3.97149 3.82158 7.62365 3.82158H7.79344V1.52914C7.79344 1.31332 7.91983 1.11934 8.11276 1.03823C8.30494 0.957897 8.52574 1.00646 8.66979 1.16234L13.0856 5.9234C13.2758 6.12797 13.2758 6.4524 13.0856 6.65698L8.66979 11.418C8.52574 11.5739 8.30358 11.622 8.11276 11.5421C7.91983 11.461 7.79344 11.2671 7.79344 11.0512V8.75893H6.98639C4.8492 8.75893 2.92858 9.99181 1.9735 11.976C1.8858 12.1594 1.7017 12.2765 1.50876 12.2765ZM7.62365 4.87959C4.77033 4.87959 2.40762 7.10488 2.06181 9.97205C3.29678 8.54169 5.06788 7.70091 6.98639 7.70091H8.30295C8.58421 7.70091 8.81247 7.93791 8.81247 8.22992V9.73932L12.0115 6.29019L8.81247 2.84106V4.35059C8.81247 4.6426 8.58421 4.87959 8.30295 4.87959H7.62365Z" fill="#7C7C7C" stroke="#28B0A2"/>
</svg>
