<svg width="16" height="24" viewBox="0 0 16 24" fill="none" xmlns="http://www.w3.org/2000/svg">
<mask id="path-1-inside-1" fill="white">
<path d="M13.0266 18.2509V11.8439C13.0266 8.55922 10.6008 5.88684 7.61905 5.88684C4.63732 5.88684 2.21153 8.55922 2.21153 11.8439V18.2509C1.4513 18.5201 0.899414 19.3063 0.899414 20.2321V23.0573H14.3387V20.2321C14.3387 19.3063 13.7868 18.5201 13.0266 18.2509ZM3.40437 16.706H11.8337V18.1515H3.40437V16.706ZM7.61905 7.20091C9.94305 7.20091 11.8337 9.28379 11.8337 11.8439V15.3919H3.40437V11.8439C3.40437 9.28379 5.29505 7.20091 7.61905 7.20091ZM13.1458 21.7433H2.09225V20.2321C2.09225 19.8094 2.40441 19.4655 2.78807 19.4655H12.45C12.8337 19.4655 13.1458 19.8094 13.1458 20.2321V21.7433Z"/>
</mask>
<path d="M13.0266 18.2509V11.8439C13.0266 8.55922 10.6008 5.88684 7.61905 5.88684C4.63732 5.88684 2.21153 8.55922 2.21153 11.8439V18.2509C1.4513 18.5201 0.899414 19.3063 0.899414 20.2321V23.0573H14.3387V20.2321C14.3387 19.3063 13.7868 18.5201 13.0266 18.2509ZM3.40437 16.706H11.8337V18.1515H3.40437V16.706ZM7.61905 7.20091C9.94305 7.20091 11.8337 9.28379 11.8337 11.8439V15.3919H3.40437V11.8439C3.40437 9.28379 5.29505 7.20091 7.61905 7.20091ZM13.1458 21.7433H2.09225V20.2321C2.09225 19.8094 2.40441 19.4655 2.78807 19.4655H12.45C12.8337 19.4655 13.1458 19.8094 13.1458 20.2321V21.7433Z" fill="black"/>
<path d="M2.21153 18.2509L2.87904 20.1363L4.21153 19.6645V18.2509H2.21153ZM0.899414 23.0573H-1.10059V25.0573H0.899414V23.0573ZM14.3387 23.0573V25.0573H16.3387V23.0573H14.3387ZM3.40437 16.706V14.706H1.40437V16.706H3.40437ZM11.8337 16.706H13.8337V14.706H11.8337V16.706ZM11.8337 18.1515V20.1515H13.8337V18.1515H11.8337ZM3.40437 18.1515H1.40437V20.1515H3.40437V18.1515ZM11.8337 15.3919V17.3919H13.8337V15.3919H11.8337ZM3.40437 15.3919H1.40437V17.3919H3.40437V15.3919ZM13.1458 21.7433V23.7433H15.1458V21.7433H13.1458ZM2.09225 21.7433H0.0922486V23.7433H2.09225V21.7433ZM15.0266 18.2509V11.8439H11.0266V18.2509H15.0266ZM15.0266 11.8439C15.0266 7.64122 11.8831 3.88684 7.61905 3.88684V7.88684C9.31844 7.88684 11.0266 9.47721 11.0266 11.8439H15.0266ZM7.61905 3.88684C3.35498 3.88684 0.211532 7.64122 0.211532 11.8439H4.21153C4.21153 9.47721 5.91966 7.88684 7.61905 7.88684V3.88684ZM0.211532 11.8439V18.2509H4.21153V11.8439H0.211532ZM1.54402 16.3656C-0.0829626 16.9417 -1.10059 18.5336 -1.10059 20.2321H2.89941C2.89941 20.1681 2.91811 20.129 2.92917 20.1126C2.942 20.0936 2.93465 20.1166 2.87904 20.1363L1.54402 16.3656ZM-1.10059 20.2321V23.0573H2.89941V20.2321H-1.10059ZM0.899414 25.0573H14.3387V21.0573H0.899414V25.0573ZM16.3387 23.0573V20.2321H12.3387V23.0573H16.3387ZM16.3387 20.2321C16.3387 18.5336 15.3211 16.9417 13.6941 16.3656L12.3591 20.1363C12.3034 20.1166 12.2961 20.0936 12.3089 20.1126C12.32 20.129 12.3387 20.1681 12.3387 20.2321H16.3387ZM3.40437 18.706H11.8337V14.706H3.40437V18.706ZM9.83373 16.706V18.1515H13.8337V16.706H9.83373ZM11.8337 16.1515H3.40437V20.1515H11.8337V16.1515ZM5.40437 18.1515V16.706H1.40437V18.1515H5.40437ZM7.61905 9.20091C8.66071 9.20091 9.83373 10.2018 9.83373 11.8439H13.8337C13.8337 8.3658 11.2254 5.20091 7.61905 5.20091V9.20091ZM9.83373 11.8439V15.3919H13.8337V11.8439H9.83373ZM11.8337 13.3919H3.40437V17.3919H11.8337V13.3919ZM5.40437 15.3919V11.8439H1.40437V15.3919H5.40437ZM5.40437 11.8439C5.40437 10.2018 6.57739 9.20091 7.61905 9.20091V5.20091C4.01271 5.20091 1.40437 8.3658 1.40437 11.8439H5.40437ZM13.1458 19.7433H2.09225V23.7433H13.1458V19.7433ZM4.09225 21.7433V20.2321H0.0922486V21.7433H4.09225ZM4.09225 20.2321C4.09225 20.7274 3.68674 21.4655 2.78807 21.4655V17.4655C1.12208 17.4655 0.0922486 18.8914 0.0922486 20.2321H4.09225ZM2.78807 21.4655H12.45V17.4655H2.78807V21.4655ZM12.45 21.4655C11.5514 21.4655 11.1458 20.7274 11.1458 20.2321H15.1458C15.1458 18.8914 14.116 17.4655 12.45 17.4655V21.4655ZM11.1458 20.2321V21.7433H15.1458V20.2321H11.1458Z" fill="black" mask="url(#path-1-inside-1)"/>
<mask id="path-3-inside-2" fill="white">
<path d="M7.02264 0.630569H8.21545V3.78578H7.02264V0.630569Z"/>
</mask>
<path d="M7.02264 0.630569H8.21545V3.78578H7.02264V0.630569Z" fill="black"/>
<path d="M7.02264 0.630569V-1.36943H5.02264V0.630569H7.02264ZM8.21545 0.630569H10.2155V-1.36943H8.21545V0.630569ZM8.21545 3.78578V5.78578H10.2155V3.78578H8.21545ZM7.02264 3.78578H5.02264V5.78578H7.02264V3.78578ZM7.02264 2.63057H8.21545V-1.36943H7.02264V2.63057ZM6.21545 0.630569V3.78578H10.2155V0.630569H6.21545ZM8.21545 1.78578H7.02264V5.78578H8.21545V1.78578ZM9.02264 3.78578V0.630569H5.02264V3.78578H9.02264Z" fill="black" mask="url(#path-3-inside-2)"/>
<mask id="path-5-inside-3" fill="white">
<path d="M9.92981 4.03162L10.9953 1.10359L12.1022 1.59243L11.0368 4.52046L9.92981 4.03162Z"/>
</mask>
<path d="M9.92981 4.03162L10.9953 1.10359L12.1022 1.59243L11.0368 4.52046L9.92981 4.03162Z" fill="black"/>
<path d="M9.92981 4.03162L8.10026 3.22369L7.41638 5.10313L9.24592 5.91106L9.92981 4.03162ZM10.9953 1.10359L11.6791 -0.775848L9.8496 -1.58378L9.16571 0.295656L10.9953 1.10359ZM12.1022 1.59243L13.9317 2.40036L14.6156 0.520921L12.7861 -0.287015L12.1022 1.59243ZM11.0368 4.52046L10.3529 6.3999L12.1824 7.20783L12.8663 5.32839L11.0368 4.52046ZM11.7594 4.83956L12.8248 1.91153L9.16571 0.295656L8.10026 3.22369L11.7594 4.83956ZM10.3114 2.98303L11.4183 3.47187L12.7861 -0.287015L11.6791 -0.775848L10.3114 2.98303ZM10.2727 0.784489L9.20721 3.71252L12.8663 5.32839L13.9317 2.40036L10.2727 0.784489ZM11.7206 2.64102L10.6137 2.15218L9.24592 5.91106L10.3529 6.3999L11.7206 2.64102Z" fill="black" mask="url(#path-5-inside-3)"/>
<mask id="path-7-inside-4" fill="white">
<path d="M12.4312 5.55893L14.3615 3.22723L15.243 4.11291L13.3126 6.44461L12.4312 5.55893Z"/>
</mask>
<path d="M12.4312 5.55893L14.3615 3.22723L15.243 4.11291L13.3126 6.44461L12.4312 5.55893Z" fill="black"/>
<path d="M12.4312 5.55893L11.0203 4.14137L9.74488 5.68193L11.1557 7.09949L12.4312 5.55893ZM14.3615 3.22723L15.637 1.68667L14.2261 0.269109L12.9507 1.80967L14.3615 3.22723ZM15.243 4.11291L16.6539 5.53047L17.9293 3.98991L16.5185 2.57235L15.243 4.11291ZM13.3126 6.44461L12.0372 7.98517L13.4481 9.40273L14.7235 7.86217L13.3126 6.44461ZM13.842 6.97649L15.7724 4.64479L12.9507 1.80967L11.0203 4.14137L13.842 6.97649ZM13.0861 4.76779L13.9676 5.65347L16.5185 2.57235L15.637 1.68667L13.0861 4.76779ZM13.8322 2.69535L11.9018 5.02705L14.7235 7.86217L16.6539 5.53047L13.8322 2.69535ZM14.5881 4.90405L13.7066 4.01837L11.1557 7.09949L12.0372 7.98517L14.5881 4.90405Z" fill="black" mask="url(#path-7-inside-4)"/>
<mask id="path-9-inside-5" fill="white">
<path d="M3.1366 1.58451L4.24354 1.09568L5.30899 4.02371L4.20204 4.51254L3.1366 1.58451Z"/>
</mask>
<path d="M3.1366 1.58451L4.24354 1.09568L5.30899 4.02371L4.20204 4.51254L3.1366 1.58451Z" fill="black"/>
<path d="M3.1366 1.58451L2.45271 -0.29493L0.623163 0.513007L1.30705 2.39245L3.1366 1.58451ZM4.24354 1.09568L6.07309 0.287741L5.3892 -1.5917L3.55966 -0.783763L4.24354 1.09568ZM5.30899 4.02371L5.99288 5.90315L7.82242 5.09521L7.13854 3.21577L5.30899 4.02371ZM4.20204 4.51254L2.3725 5.32048L3.05639 7.19992L4.88593 6.39198L4.20204 4.51254ZM3.82048 3.46395L4.92743 2.97512L3.55966 -0.783763L2.45271 -0.29493L3.82048 3.46395ZM2.414 1.90361L3.47944 4.83165L7.13854 3.21577L6.07309 0.287741L2.414 1.90361ZM4.6251 2.14427L3.51816 2.6331L4.88593 6.39198L5.99288 5.90315L4.6251 2.14427ZM6.03159 3.70461L4.96614 0.776574L1.30705 2.39245L2.3725 5.32048L6.03159 3.70461Z" fill="black" mask="url(#path-9-inside-5)"/>
<mask id="path-11-inside-6" fill="white">
<path d="M0 4.11238L0.881506 3.2267L2.81192 5.5584L1.93041 6.44408L0 4.11238Z"/>
</mask>
<path d="M0 4.11238L0.881506 3.2267L2.81192 5.5584L1.93041 6.44408L0 4.11238Z" fill="black"/>
<path d="M0 4.11238L-1.27542 2.57183L-2.68629 3.98938L-1.41087 5.52993L0 4.11238ZM0.881506 3.2267L2.29237 1.80915L1.01695 0.268599L-0.393918 1.68615L0.881506 3.2267ZM2.81192 5.5584L4.08734 7.09895L5.49821 5.6814L4.22279 4.14085L2.81192 5.5584ZM1.93041 6.44408L0.519546 7.86163L1.79497 9.40218L3.20584 7.98463L1.93041 6.44408ZM1.27542 5.65293L2.15693 4.76725L-0.393918 1.68615L-1.27542 2.57183L1.27542 5.65293ZM-0.529363 4.64425L1.40105 6.97595L4.22279 4.14085L2.29237 1.80915L-0.529363 4.64425ZM1.5365 4.01785L0.654991 4.90353L3.20584 7.98463L4.08734 7.09895L1.5365 4.01785ZM3.34128 5.02653L1.41087 2.69483L-1.41087 5.52993L0.519546 7.86163L3.34128 5.02653Z" fill="black" mask="url(#path-11-inside-6)"/>
<mask id="path-13-inside-7" fill="white">
<path d="M7.02264 8.64638H8.21545V12.209H7.02264V8.64638Z"/>
</mask>
<path d="M7.02264 8.64638H8.21545V12.209H7.02264V8.64638Z" fill="black"/>
<path d="M7.02264 8.64638V6.64638H5.02264V8.64638H7.02264ZM8.21545 8.64638H10.2155V6.64638H8.21545V8.64638ZM8.21545 12.209V14.209H10.2155V12.209H8.21545ZM7.02264 12.209H5.02264V14.209H7.02264V12.209ZM7.02264 10.6464H8.21545V6.64638H7.02264V10.6464ZM6.21545 8.64638V12.209H10.2155V8.64638H6.21545ZM8.21545 10.2089H7.02264V14.209H8.21545V10.2089ZM9.02264 12.209V8.64638H5.02264V12.209H9.02264Z" fill="black" mask="url(#path-13-inside-7)"/>
<mask id="path-15-inside-8" fill="white">
<path d="M7.02264 13.1142H8.21545V14.4283H7.02264V13.1142Z"/>
</mask>
<path d="M7.02264 13.1142H8.21545V14.4283H7.02264V13.1142Z" fill="black"/>
<path d="M7.02264 13.1142V11.1142H5.02264V13.1142H7.02264ZM8.21545 13.1142H10.2155V11.1142H8.21545V13.1142ZM8.21545 14.4283V16.4283H10.2155V14.4283H8.21545ZM7.02264 14.4283H5.02264V16.4283H7.02264V14.4283ZM7.02264 15.1142H8.21545V11.1142H7.02264V15.1142ZM6.21545 13.1142V14.4283H10.2155V13.1142H6.21545ZM8.21545 12.4283H7.02264V16.4283H8.21545V12.4283ZM9.02264 14.4283V13.1142H5.02264V14.4283H9.02264Z" fill="black" mask="url(#path-15-inside-8)"/>
</svg>
